<?xml version="1.0" encoding="utf-8"?>
<!-- Generator: Adobe Illustrator 25.0.0, SVG Export Plug-In . SVG Version: 6.00 Build 0)  -->
<svg version="1.1" id="Layer_1" xmlns="http://www.w3.org/2000/svg" xmlns:xlink="http://www.w3.org/1999/xlink" x="0px" y="0px"
	 viewBox="0 0 500 500" style="enable-background:new 0 0 500 500;" xml:space="preserve">
<style type="text/css">
	.st0{fill:#1E33C0;}
</style>
<g>
	<polygon class="st0" points="354.99,349.29 356.32,343.3 353.67,343.3 	"/>
	<polygon class="st0" points="148.49,345.74 149.05,343.3 147.96,343.3 	"/>
	<polygon class="st0" points="500,0 432.71,0 397.84,156.7 463.64,156.7 	"/>
	<polygon class="st0" points="148.49,345.74 147.96,343.3 79.65,343.3 116.01,500 174.01,500 210.2,343.3 149.05,343.3 	"/>
	<polygon class="st0" points="354.99,349.29 353.67,343.3 290.35,343.3 325.99,500 383.99,500 420.35,343.3 356.32,343.3 	"/>
	<polygon class="st0" points="278.42,0 227.38,0 191.62,156.7 312.77,156.7 	"/>
	<polygon class="st0" points="73.09,0 0,0 36.36,156.7 107.26,156.7 	"/>
</g>
<g>
	<path class="st0" d="M30.73,306.02h56.12v25.69H0.51c0-1.73-2.59-20.51,3.89-37.34c6.04-15.54,15.11-27.63,32.38-40.58
		c13.6-10.15,20.51-23.74,21.15-28.71c0.22-1.94,0.43-5.61,0.43-8.85v-5.83c0-11.01-3.45-16.41-14.03-16.41
		c-8.63,0-15.33,5.18-15.33,19v12.09H0.51V211.9c0-25.9,13.17-43.6,43.6-43.6c31.73,0,42.74,18.35,42.74,43.6v6.69
		c0,3.67-0.22,8.2-0.43,10.58c-2.37,15.33-11.22,31.08-30.22,44.25C46.92,280.11,31.38,294.79,30.73,306.02z"/>
	<path class="st0" d="M191.33,240.18v26.34h-84.62v-26.34H191.33z"/>
	<path class="st0" d="M279.83,195.5h-30.22V331.7h-29.57V195.5h-30.22v-25.69h90.01V195.5z"/>
	<path class="st0" d="M323.65,196.14v35.62H372v26.77h-48.35v46.84h60.01v26.34h-91.09V169.81h88.93v26.33H323.65z"/>
	<path class="st0" d="M442.15,271.05l-11.66,22.23v38.42h-31.08V169.81h31.08v61.74l32.16-61.74h33.89l-36.48,68.21L500,331.7
		h-32.81L442.15,271.05z"/>
</g>
</svg>
