<?xml version="1.0" encoding="utf-8"?>
<!-- Generator: Adobe Illustrator 25.0.0, SVG Export Plug-In . SVG Version: 6.00 Build 0)  -->
<svg version="1.1" id="Layer_1" xmlns="http://www.w3.org/2000/svg" xmlns:xlink="http://www.w3.org/1999/xlink" x="0px" y="0px"
	 viewBox="0 0 306 30" style="enable-background:new 0 0 306 30;" xml:space="preserve">
<style type="text/css">
	.st0{fill:#6610F2;}
	.st1{fill:#FFFFFF;}
</style>
<path d="M15.7,29l6.6-18.7L28.8,29h5l10-28.2H38l-6.7,19.7L24.7,0.8h-4.4l-6.8,19.5L7,0.8H0.7l10,28.2H15.7z M60.4,29.4
	c2.8,0,5.2-0.6,7.3-1.8c2.1-1.2,3.7-2.9,4.8-5c1.1-2.2,1.7-4.7,1.7-7.7c0-2.9-0.6-5.5-1.7-7.7c-1.1-2.2-2.7-3.8-4.8-5
	c-2.1-1.2-4.5-1.8-7.3-1.8S55.1,1,53.1,2.2s-3.7,2.8-4.8,5c-1.1,2.2-1.7,4.7-1.7,7.7c0,2.9,0.6,5.5,1.7,7.7c1.1,2.2,2.7,3.9,4.8,5
	C55.1,28.8,57.6,29.4,60.4,29.4z M60.4,24.5c-2.3,0-4.2-0.8-5.5-2.5c-1.3-1.7-2-4-2-7.2c0-3.1,0.7-5.5,2-7.1
	c1.3-1.6,3.2-2.5,5.5-2.5c2.4,0,4.2,0.8,5.6,2.5c1.3,1.6,2,4,2,7.1c0,3.1-0.7,5.5-2,7.2C64.6,23.7,62.7,24.5,60.4,24.5z M85,29V18
	h3.1c0.9,0,1.6,0.2,2.1,0.5s1,0.8,1.4,1.5l0,0l4.9,9h6.8l-4.6-8.4c-1-1.7-2.3-2.8-3.7-3.2c2.2-0.5,3.8-1.4,5-2.8
	c1.2-1.4,1.8-3.2,1.8-5.4c0-2.7-0.8-4.8-2.5-6.3c-1.7-1.5-4.2-2.2-7.5-2.2l0,0h-13V29H85z M90.9,13.3h-6V5.6h6
	c1.8,0,3.1,0.3,3.9,0.9s1.2,1.6,1.2,3c0,1.3-0.4,2.3-1.2,2.9S92.7,13.3,90.9,13.3L90.9,13.3z M125.8,29v-5.1h-12.6V0.8h-6.2V29
	H125.8z M140.4,29c3.1,0,5.7-0.6,8-1.7s3.9-2.7,5.1-4.9c1.2-2.1,1.7-4.6,1.7-7.6c0-2.9-0.6-5.5-1.8-7.6c-1.2-2.1-2.9-3.7-5.1-4.8
	s-4.9-1.7-7.9-1.7l0,0h-11V29H140.4z M140,24h-4.3V5.8h4.3c6,0,9,3,9,9C149,20.9,146,24,140,24L140,24z M185.4,29l12.7-28.2h-6.3
	L183,21.2l-8.8-20.4h-6.5L180.4,29H185.4z M206.5,29V0.8h-6.2V29H206.5z M222,29.4c3.7,0,6.5-0.8,8.6-2.3s3.1-3.6,3.1-6.3
	c0-2.2-0.8-3.9-2.4-5.2c-1.6-1.3-4.2-2.3-7.8-3.1c-1.5-0.3-2.7-0.7-3.6-1c-0.8-0.3-1.4-0.7-1.8-1.1s-0.5-0.9-0.5-1.6
	c0-1.1,0.5-2,1.4-2.6c0.9-0.6,2.2-0.9,3.8-0.9c2.9,0,5.6,0.9,8.2,2.8l0,0l2-4.4c-1.1-1-2.6-1.8-4.4-2.4s-3.8-0.9-5.8-0.9
	c-2.2,0-4.2,0.4-5.9,1.1c-1.7,0.8-3,1.8-4,3.1c-0.9,1.3-1.4,2.9-1.4,4.6c0,1.5,0.3,2.8,1,3.9s1.8,1.9,3.2,2.7
	c1.5,0.7,3.5,1.3,5.9,1.8c2.2,0.5,3.8,1,4.6,1.5c0.9,0.5,1.3,1.2,1.3,2.1c0,1-0.5,1.8-1.4,2.4c-0.9,0.6-2.3,0.9-4.1,0.9
	c-3.4,0-6.4-0.9-9.2-2.8l0,0l-2,4.4c1.3,1,2.9,1.8,4.9,2.4S219.8,29.4,222,29.4z M244.4,29V0.8h-6.2V29H244.4z M262.9,29.4
	c2.8,0,5.2-0.6,7.3-1.8c2.1-1.2,3.7-2.9,4.8-5c1.1-2.2,1.7-4.7,1.7-7.7c0-2.9-0.6-5.5-1.7-7.7c-1.1-2.2-2.7-3.8-4.8-5
	c-2.1-1.2-4.5-1.8-7.3-1.8s-5.2,0.6-7.3,1.8s-3.7,2.8-4.8,5c-1.1,2.2-1.7,4.7-1.7,7.7c0,2.9,0.6,5.5,1.7,7.7c1.1,2.2,2.7,3.9,4.8,5
	C257.7,28.8,260.1,29.4,262.9,29.4z M262.9,24.5c-2.3,0-4.2-0.8-5.5-2.5c-1.3-1.7-2-4-2-7.2c0-3.1,0.7-5.5,2-7.1
	c1.3-1.6,3.2-2.5,5.5-2.5c2.4,0,4.2,0.8,5.6,2.5c1.3,1.6,2,4,2,7.1c0,3.1-0.7,5.5-2,7.2C267.1,23.7,265.3,24.5,262.9,24.5z
	 M287.2,29V11l14,18h4.6V0.8h-5.8v17.9L286,0.8h-4.6V29H287.2z"/>
<g>
	<g>
		<path class="st0" d="M148.6,23.3c-0.2,0-0.3-0.1-0.5-0.3c-0.1-0.1-0.2-0.3-0.7-0.5c-0.4-0.2-0.9-0.3-1.5-0.5
			c-0.6-0.2-1.2-0.3-2-0.4c-0.7-0.1-1.5-0.2-2.2-0.3c-0.7-0.1-1.5-0.2-2.2-0.2c-0.7,0-1.4-0.1-2-0.1c-0.5,0-1,0-1.3,0.1l-1.8,0.6
			c-0.1,0-0.1,0-0.2,0c-0.1,0-0.3,0-0.4-0.1c-0.2-0.1-0.3-0.2-0.5-0.3c-0.1-0.1-0.2-0.3-0.3-0.4c-0.1-0.2-0.1-0.4,0-0.5
			c0.2-0.3,0.6-0.6,1.3-0.8c0.6-0.2,1.4-0.4,2.4-0.5c0.3-0.1,0.7-0.2,1.3-0.5c0.6-0.3,1.2-0.6,1.9-1c0.7-0.4,1.4-0.9,2.2-1.5
			c0.8-0.5,1.6-1.1,2.3-1.8s1.5-1.3,2.2-2c0.7-0.7,1.3-1.4,1.9-2.1c0.5-0.7,1-1.4,1.3-2c0.3-0.6,0.5-1.3,0.5-1.8
			c0-0.4-0.1-0.9-0.3-1.2c-0.2-0.3-0.4-0.5-0.7-0.6c-0.4-0.1-0.7-0.2-1.1-0.2c-0.4,0-0.8,0-1.1,0.1c-0.4,0.1-0.7,0.2-1,0.3
			c-0.6,0.2-1.2,0.5-1.8,0.8c-0.5,0.3-1,0.6-1.3,1c-0.4,0.3-0.6,0.6-0.8,0.9c-0.2,0.3-0.3,0.5-0.3,0.5V8l-0.1,0.1
			c-0.2,0.2-0.3,0.3-0.5,0.3h0l-0.1,0c-0.2-0.1-0.3-0.2-0.4-0.4c-0.1-0.2-0.2-0.3-0.2-0.5c0-0.2,0-0.4,0-0.5
			c0.1-0.4,0.4-0.8,0.8-1.4c0.4-0.5,1-1,1.6-1.5c0.7-0.5,1.4-0.9,2.3-1.2c0.9-0.3,1.8-0.5,2.8-0.5c0.1,0,0.3,0,0.4,0
			c0.1,0,0.3,0,0.4,0c0.6,0.1,1.1,0.3,1.5,0.6c0.4,0.3,0.7,0.6,1,0.9c0.3,0.4,0.5,0.7,0.6,1.2c0.1,0.4,0.2,0.8,0.2,1.3
			c0,0.8-0.2,1.6-0.6,2.5c-0.4,0.8-0.9,1.7-1.5,2.5c-0.6,0.8-1.3,1.7-2.2,2.5c-0.8,0.8-1.7,1.6-2.6,2.3c-0.9,0.7-1.8,1.4-2.8,2
			c-0.7,0.5-1.3,0.9-2,1.2c0.3,0,0.6,0.1,0.9,0.1c0.6,0.1,1.2,0.2,1.9,0.3c0.6,0.1,1.3,0.3,1.9,0.4c0.6,0.2,1.2,0.3,1.7,0.5
			c0.5,0.2,1,0.4,1.4,0.6c0.4,0.2,0.7,0.4,0.9,0.7c0.2,0.3,0.2,0.5,0.2,0.7c0,0.2-0.1,0.4-0.3,0.5C149,23.3,148.9,23.3,148.6,23.3
			L148.6,23.3z"/>
		<path class="st1" d="M147.9,2.7c0.1,0,0.3,0,0.4,0c0.1,0,0.3,0,0.4,0c0.5,0.1,1,0.3,1.4,0.5c0.4,0.2,0.7,0.5,0.9,0.9
			c0.2,0.3,0.4,0.7,0.5,1.1c0.1,0.4,0.2,0.8,0.2,1.2c0,0.8-0.2,1.6-0.5,2.4c-0.4,0.8-0.9,1.7-1.5,2.5c-0.6,0.8-1.3,1.6-2.1,2.4
			c-0.8,0.8-1.7,1.6-2.6,2.3c-0.9,0.7-1.8,1.4-2.7,2c-0.9,0.6-1.8,1.2-2.7,1.6c0.5,0,1.1,0.1,1.7,0.2c0.6,0.1,1.2,0.2,1.9,0.3
			c0.6,0.1,1.3,0.3,1.9,0.4c0.6,0.2,1.2,0.3,1.7,0.5c0.5,0.2,1,0.4,1.4,0.6c0.4,0.2,0.7,0.4,0.9,0.6c0.1,0.2,0.2,0.3,0.1,0.5
			c0,0.1-0.1,0.2-0.2,0.3c-0.1,0.1-0.2,0.1-0.2,0.1c0,0,0,0-0.1,0c-0.1,0-0.2-0.1-0.3-0.2c-0.1-0.2-0.4-0.4-0.8-0.6
			c-0.4-0.2-0.9-0.4-1.5-0.5c-0.6-0.2-1.2-0.3-2-0.4c-0.7-0.1-1.5-0.2-2.2-0.3c-0.7-0.1-1.5-0.2-2.2-0.2c-0.7,0-1.4-0.1-2-0.1
			c-0.5,0-1,0-1.4,0.1l-1.9,0.6c0,0-0.1,0-0.1,0c-0.1,0-0.2,0-0.3-0.1c-0.2-0.1-0.3-0.1-0.4-0.3c-0.1-0.1-0.2-0.2-0.2-0.4
			c-0.1-0.1-0.1-0.2,0-0.3c0.1-0.3,0.5-0.5,1.1-0.7c0.6-0.2,1.4-0.4,2.4-0.5c0.3-0.1,0.8-0.2,1.3-0.5c0.6-0.3,1.2-0.6,1.9-1
			c0.7-0.4,1.4-0.9,2.2-1.5c0.8-0.6,1.6-1.1,2.3-1.8c0.8-0.6,1.5-1.3,2.2-2c0.7-0.7,1.3-1.4,1.9-2.1c0.5-0.7,1-1.4,1.3-2.1
			c0.3-0.7,0.5-1.3,0.5-1.9c0-0.5-0.1-0.9-0.4-1.4c-0.2-0.3-0.5-0.6-0.9-0.7c-0.4-0.1-0.8-0.2-1.2-0.2c-0.4,0-0.8,0-1.2,0.1
			c-0.4,0.1-0.8,0.2-1.1,0.3c-0.7,0.2-1.3,0.5-1.8,0.8c-0.5,0.3-1,0.7-1.4,1c-0.4,0.3-0.7,0.6-0.9,0.9c-0.2,0.3-0.3,0.5-0.3,0.7
			c-0.1,0.1-0.2,0.2-0.3,0.2c0,0,0,0-0.1,0c-0.1,0-0.2-0.1-0.3-0.2c-0.1-0.1-0.1-0.3-0.2-0.4c0-0.2,0-0.3,0-0.4
			c0.1-0.4,0.3-0.8,0.7-1.3c0.4-0.5,0.9-1,1.6-1.4c0.7-0.5,1.4-0.8,2.2-1.1C146.1,2.8,147,2.7,147.9,2.7 M147.9,2.2
			c-1,0-2,0.2-2.9,0.5c-0.9,0.3-1.7,0.7-2.4,1.2c-0.7,0.5-1.3,1-1.7,1.5c-0.5,0.6-0.7,1-0.8,1.5c0,0.2-0.1,0.4,0,0.6
			c0,0.2,0.1,0.4,0.2,0.6c0.2,0.3,0.4,0.4,0.6,0.5c0.1,0,0.1,0,0.2,0c0.3,0,0.5-0.1,0.7-0.4l0.1-0.1V7.9c0,0,0,0,0,0
			c0,0,0-0.1,0.2-0.4c0.2-0.3,0.5-0.5,0.8-0.8c0.4-0.3,0.8-0.6,1.3-0.9c0.5-0.3,1.1-0.6,1.7-0.8c0.3-0.1,0.6-0.2,1-0.3
			c0.4-0.1,0.7-0.1,1.1-0.1c0.4,0,0.7,0.1,1.1,0.2c0.3,0.1,0.5,0.2,0.6,0.5c0.2,0.4,0.3,0.7,0.3,1.1c0,0.5-0.1,1.1-0.4,1.7
			c-0.3,0.6-0.7,1.3-1.2,2c-0.5,0.7-1.1,1.4-1.8,2c-0.7,0.7-1.4,1.4-2.2,2c-0.8,0.6-1.5,1.2-2.3,1.8c-0.8,0.5-1.5,1-2.2,1.4
			c-0.7,0.4-1.3,0.8-1.9,1c-0.5,0.2-0.9,0.4-1.2,0.4c-1,0.2-1.8,0.3-2.4,0.5c-0.8,0.2-1.2,0.5-1.4,0.9c-0.1,0.1-0.1,0.4,0,0.7
			c0.1,0.2,0.2,0.4,0.4,0.5c0.2,0.2,0.4,0.3,0.6,0.4c0.2,0.1,0.3,0.1,0.5,0.1c0.1,0,0.2,0,0.2,0l1.9-0.6c0.3,0,0.8-0.1,1.3-0.1
			c0.6,0,1.2,0,1.9,0.1c0.7,0,1.4,0.1,2.2,0.2c0.7,0.1,1.5,0.2,2.2,0.3c0.7,0.1,1.4,0.3,1.9,0.4c0.6,0.1,1,0.3,1.4,0.5
			c0.4,0.2,0.5,0.3,0.5,0.4l0,0l0,0c0.2,0.3,0.5,0.3,0.6,0.4c0,0,0.1,0,0.1,0c0.2,0,0.4-0.1,0.5-0.2c0.1-0.1,0.3-0.3,0.4-0.6
			c0-0.3,0-0.6-0.2-0.8l0,0l0,0c-0.2-0.3-0.6-0.5-1-0.7c-0.4-0.2-0.9-0.4-1.4-0.6c-0.5-0.2-1.1-0.3-1.8-0.5
			c-0.6-0.2-1.3-0.3-1.9-0.4c-0.6-0.1-1.3-0.2-1.9-0.3c0,0-0.1,0-0.1,0c0.4-0.3,0.9-0.5,1.4-0.8c0.9-0.6,1.9-1.3,2.8-2
			c0.9-0.7,1.8-1.5,2.6-2.3c0.8-0.8,1.6-1.7,2.2-2.5c0.6-0.9,1.1-1.7,1.5-2.6c0.4-0.9,0.6-1.8,0.6-2.6c0-0.5-0.1-0.9-0.2-1.3
			c-0.1-0.4-0.3-0.9-0.6-1.2c-0.3-0.4-0.6-0.7-1.1-1c-0.4-0.3-1-0.5-1.5-0.6c-0.2,0-0.3,0-0.5,0C148.2,2.2,148.1,2.2,147.9,2.2
			L147.9,2.2z"/>
	</g>
	<g>
		<path class="st0" d="M156,29.8c-0.4,0-0.6-0.2-0.6-0.4c-0.1-0.2-0.2-0.4-0.2-0.7c0-0.4,0.1-0.8,0.2-1.3c0.1-0.5,0.3-1,0.5-1.5
			c0.2-0.5,0.3-0.9,0.5-1.3l0.3-0.8c0.2-0.5,0.4-0.9,0.6-1.3c0.2-0.4,0.4-0.8,0.6-1.2c0.2-0.4,0.4-0.9,0.7-1.3
			c0.3-0.5,0.5-1,0.9-1.6c0.4-0.7,0.9-1.5,1.4-2.4c0.5-0.9,1.1-1.9,1.7-2.8c0.6-1,1.2-1.9,1.7-2.9c0.5-0.7,0.9-1.4,1.3-2
			c-0.9,0.1-1.8,0.2-2.7,0.3c-1,0.1-2,0.3-2.9,0.4c0,0,0,0,0,0c-0.3,0-0.4-0.1-0.5-0.3c-0.1-0.1-0.1-0.3-0.1-0.5
			c0-0.2,0.1-0.3,0.2-0.5c0.1-0.2,0.3-0.3,0.5-0.3c1-0.2,2.1-0.3,3.2-0.5c1-0.1,2.2-0.3,3.5-0.4c0.3-0.4,0.5-0.8,0.8-1.2
			c0.3-0.5,0.6-0.9,0.9-1.3c0.3-0.4,0.6-0.8,0.8-1.2c0.3-0.4,0.5-0.6,0.7-0.8c0.2-0.1,0.3-0.2,0.4-0.2c0.1,0,0.2,0,0.2,0
			c0.2,0.1,0.3,0.2,0.5,0.3c0.1,0.1,0.2,0.3,0.3,0.4c0.1,0.3,0,0.4-0.1,0.5c-0.2,0.2-0.4,0.4-0.6,0.7c-0.2,0.3-0.4,0.6-0.7,0.9
			c-0.2,0.3-0.4,0.7-0.7,1l-0.3,0.5c0.6-0.1,1.3-0.1,1.9-0.2c0.8-0.1,1.6-0.1,2.3-0.1c0.4,0,1-0.1,1.5-0.1c0.4,0,0.7,0,1.1,0l0.5,0
			c0.6,0,1.1,0,1.6,0.1c0.5,0,1,0.1,1.4,0.3c0.2,0.1,0.4,0.2,0.5,0.4c0.2,0.3,0.1,0.5,0.1,0.7c0,0.1-0.1,0.2-0.3,0.3
			c-0.1,0.1-0.2,0.1-0.4,0.1c-0.1,0-0.2,0-0.3,0l-0.1,0c-0.1,0-0.3,0-0.4-0.1c-0.2-0.1-0.3-0.2-0.3-0.4c-0.7-0.1-1.3-0.1-2-0.1
			l-0.4,0c-0.9,0-1.8,0.1-2.7,0.1c-0.9,0.1-1.8,0.1-2.7,0.2l-2.6,0.3c-0.5,0.7-1,1.5-1.5,2.4c-0.6,1-1.2,2-1.8,3
			c-0.6,1-1.2,2.1-1.8,3.1c-0.6,1-1.1,1.9-1.5,2.7c-0.7,1.2-1.3,2.4-1.9,3.6c-0.6,1.1-1.1,2.2-1.5,3.1c-0.2,0.4-0.4,0.8-0.5,1.2
			c-0.2,0.4-0.3,0.8-0.4,1.1l-0.2,0.7c0,0,0,0,0,0.1c0.1,0.3,0.1,0.5,0,0.6C156.5,29.7,156.3,29.8,156,29.8L156,29.8L156,29.8z"/>
		<path class="st1" d="M170.3,2c0.1,0,0.1,0,0.2,0c0.1,0.1,0.3,0.1,0.4,0.2c0.1,0.1,0.2,0.2,0.2,0.4c0,0.1,0,0.2,0,0.3
			c-0.2,0.2-0.4,0.5-0.6,0.7c-0.2,0.3-0.4,0.6-0.7,0.9c-0.2,0.3-0.5,0.7-0.7,1c-0.2,0.3-0.4,0.7-0.6,1c0.8-0.1,1.6-0.1,2.4-0.2
			c0.8-0.1,1.6-0.1,2.3-0.1c0.5,0,1-0.1,1.5-0.1c0.4,0,0.7,0,1.1,0c0.2,0,0.4,0,0.6,0c0.6,0,1.1,0,1.6,0.1c0.5,0,0.9,0.1,1.3,0.2
			c0.2,0.1,0.3,0.2,0.4,0.3c0.1,0.1,0.1,0.3,0.1,0.4c0,0.1-0.1,0.2-0.2,0.2c-0.1,0.1-0.2,0.1-0.3,0.1c-0.1,0-0.2,0-0.3,0
			c0,0-0.1,0-0.1,0c-0.1,0-0.2,0-0.3-0.1c-0.1,0-0.1-0.1-0.1-0.2c0-0.1,0-0.1,0-0.2C177.7,7.1,177,7,176.2,7c-0.1,0-0.3,0-0.4,0
			c-0.9,0-1.8,0.1-2.7,0.1c-0.9,0.1-1.8,0.1-2.7,0.2c-0.9,0.1-1.8,0.2-2.7,0.3c-0.5,0.7-1,1.5-1.6,2.5c-0.6,1-1.2,2-1.8,3
			c-0.6,1-1.2,2.1-1.8,3.1c-0.6,1-1.1,1.9-1.5,2.7c-0.7,1.2-1.3,2.4-1.9,3.6c-0.6,1.1-1.1,2.2-1.5,3.1c-0.2,0.4-0.4,0.8-0.5,1.2
			c-0.2,0.4-0.3,0.8-0.4,1.1l-0.2,0.8c0,0,0,0.1,0,0.1c0,0,0,0,0,0.1c0.1,0.1,0.1,0.3,0,0.4c-0.1,0.1-0.2,0.2-0.4,0.2
			c-0.2,0-0.4-0.1-0.4-0.2c-0.1-0.1-0.1-0.3-0.1-0.6c0-0.4,0.1-0.8,0.2-1.3c0.1-0.5,0.3-1,0.5-1.4c0.2-0.5,0.3-0.9,0.5-1.3
			c0.2-0.4,0.3-0.7,0.3-0.8c0.2-0.5,0.4-0.9,0.6-1.3c0.2-0.4,0.4-0.8,0.6-1.2c0.2-0.4,0.4-0.8,0.7-1.3c0.2-0.5,0.5-1,0.9-1.6
			c0.4-0.7,0.9-1.5,1.4-2.4c0.5-0.9,1.1-1.9,1.7-2.8c0.6-1,1.1-1.9,1.7-2.9c0.6-0.9,1.1-1.7,1.6-2.4c-1.1,0.1-2.2,0.2-3.3,0.4
			c-1,0.1-2,0.3-2.9,0.4c0,0,0,0,0,0c-0.1,0-0.2-0.1-0.2-0.2c0-0.1-0.1-0.2-0.1-0.4c0-0.1,0-0.3,0.1-0.4c0.1-0.1,0.2-0.2,0.3-0.2
			c1-0.2,2.1-0.3,3.2-0.5c1.1-0.1,2.3-0.3,3.6-0.4c0.3-0.4,0.6-0.8,0.9-1.3c0.3-0.5,0.6-0.9,0.9-1.3c0.3-0.4,0.6-0.8,0.8-1.1
			c0.3-0.3,0.5-0.6,0.7-0.8C170.2,2,170.2,2,170.3,2 M170.3,1.5c-0.2,0-0.4,0.1-0.5,0.2l0,0l0,0c-0.2,0.2-0.5,0.5-0.8,0.9
			c-0.3,0.3-0.5,0.7-0.8,1.2c-0.3,0.4-0.6,0.9-0.9,1.3c-0.3,0.4-0.5,0.7-0.7,1.1c-1.2,0.1-2.4,0.3-3.4,0.4C162,6.7,161,6.8,159.9,7
			c-0.3,0-0.5,0.2-0.6,0.5c-0.1,0.2-0.2,0.4-0.2,0.6c0,0.2,0,0.4,0.1,0.6c0.1,0.3,0.4,0.5,0.7,0.5h0l0.1,0c0.9-0.1,1.9-0.3,2.9-0.4
			c0.7-0.1,1.4-0.2,2.2-0.3c-0.3,0.5-0.6,1-1,1.6c-0.6,0.9-1.1,1.9-1.7,2.9c-0.6,1-1.1,1.9-1.7,2.9c-0.5,0.9-1,1.7-1.4,2.4
			c-0.3,0.6-0.6,1.2-0.9,1.7c-0.3,0.5-0.5,0.9-0.7,1.3c-0.2,0.4-0.4,0.8-0.6,1.2c-0.2,0.4-0.4,0.8-0.6,1.3c-0.1,0.2-0.2,0.4-0.3,0.8
			c-0.2,0.4-0.3,0.8-0.5,1.3c-0.2,0.5-0.3,1-0.5,1.5c-0.2,0.5-0.2,1-0.2,1.4c0,0.3,0.1,0.6,0.2,0.9c0.2,0.3,0.5,0.5,0.8,0.5l0,0l0,0
			c0.5,0,0.7-0.3,0.8-0.4c0.1-0.1,0.2-0.4,0-0.8l0.2-0.6c0.1-0.3,0.2-0.7,0.4-1.1c0.2-0.4,0.3-0.8,0.5-1.2c0.4-0.9,1-2,1.5-3.1
			c0.6-1.1,1.2-2.3,1.9-3.5c0.4-0.8,0.9-1.7,1.5-2.7c0.6-1,1.2-2,1.8-3.1c0.6-1,1.2-2.1,1.8-3c0.5-0.9,1-1.7,1.5-2.3l2.5-0.2
			c0.9-0.1,1.8-0.2,2.7-0.2c0.9-0.1,1.8-0.1,2.7-0.1c0.1,0,0.2,0,0.4,0c0.6,0,1.2,0,1.8,0.1c0.1,0.2,0.2,0.3,0.4,0.3
			c0.2,0.1,0.3,0.1,0.5,0.1c0,0,0.1,0,0.1,0c0.1,0,0.2,0,0.4,0c0.2,0,0.3-0.1,0.5-0.2c0.2-0.1,0.3-0.3,0.4-0.5
			c0.1-0.3,0.1-0.6-0.1-0.8c-0.2-0.2-0.4-0.4-0.6-0.5l0,0l0,0c-0.4-0.1-0.9-0.2-1.4-0.3c-0.5,0-1.1-0.1-1.6-0.1c-0.2,0-0.4,0-0.6,0
			c-0.4,0-0.7,0-1.1,0c-0.6,0-1.1,0-1.5,0.1c-0.7,0-1.5,0.1-2.3,0.1c-0.5,0-0.9,0.1-1.4,0.1c0,0,0-0.1,0.1-0.1
			c0.2-0.3,0.4-0.7,0.7-1c0.2-0.3,0.4-0.6,0.6-0.9c0.2-0.3,0.4-0.5,0.6-0.7c0.1-0.1,0.3-0.3,0.1-0.7c-0.1-0.2-0.2-0.4-0.3-0.5
			c-0.2-0.2-0.3-0.3-0.5-0.4C170.6,1.5,170.4,1.5,170.3,1.5L170.3,1.5z"/>
	</g>
	<g>
		<path class="st0" d="M174.1,23.8c-0.2,0-0.3-0.1-0.5-0.2c-0.1-0.1-0.3-0.2-0.4-0.4c-0.1-0.2-0.1-0.4,0-0.6c0.2-0.4,0.5-1,0.9-1.7
			c0.3-0.5,0.7-1.2,1.1-1.8c-0.2,0.2-0.5,0.3-0.7,0.5c-0.5,0.3-1.1,0.7-1.6,1c-0.6,0.3-1.1,0.6-1.6,0.8c-0.5,0.2-1.1,0.4-1.6,0.6
			c-0.5,0.1-1,0.2-1.4,0.2c0,0,0,0,0,0c-0.4,0-0.7-0.1-1-0.2c-0.3-0.1-0.6-0.3-0.9-0.6c-0.2-0.2-0.5-0.5-0.6-0.8
			c-0.2-0.3-0.3-0.7-0.3-1c0-0.7,0.1-1.4,0.4-2.1c0.3-0.7,0.7-1.4,1.1-2c0.5-0.6,1-1.1,1.6-1.5c0.6-0.4,1.2-0.7,1.7-0.8
			c0.2,0,0.3-0.1,0.5-0.1c0.1,0,0.2,0,0.3,0c0.3,0,0.6,0.1,0.8,0.2c0.3,0.1,0.5,0.3,0.7,0.5c0.2,0.2,0.3,0.5,0.4,0.9
			c0.1,0.5-0.1,1-0.4,1.6c-0.3,0.5-0.7,1-1.3,1.4c-0.5,0.4-1.2,0.7-1.9,0.9c-0.5,0.2-1.1,0.3-1.7,0.3c-0.1,0-0.3,0-0.4,0
			c0,0.2-0.1,0.3-0.1,0.4c0,0.2-0.1,0.4-0.1,0.5c0,0.3,0,0.4,0.1,0.6c0,0,0.1,0.1,0.5,0.1c0.5,0,1.3-0.2,2.3-0.6
			c1-0.4,2.1-0.9,3.3-1.6c0.5-0.3,1-0.6,1.4-0.9c0.4-0.3,0.9-0.6,1.3-0.9c0.4-0.3,0.8-0.6,1.2-0.9l0.2-0.2l0.4-0.6l1.5-2.2
			c0.7-1,1.4-2.1,2.1-3.1c0.7-1,1.3-1.9,1.9-2.8c0.6-0.9,1.1-1.6,1.6-2.3c0.5-0.7,0.9-1.1,1.1-1.5c0.1-0.1,0.3-0.2,0.5-0.2
			c0.1,0,0.1,0,0.2,0c0.2,0.1,0.3,0.2,0.5,0.3c0.1,0.2,0.2,0.3,0.3,0.6c0,0.2,0,0.5-0.2,0.7c-0.2,0.2-0.4,0.6-0.8,1
			c-0.3,0.5-0.7,1-1.1,1.6c-0.4,0.6-0.9,1.2-1.4,2l-3.8,5.6c0.2-0.1,0.4-0.2,0.6-0.3c0.5-0.2,1.1-0.4,1.6-0.6
			c0.6-0.2,1.1-0.4,1.6-0.5c0.5-0.1,1-0.3,1.4-0.3c0.1,0,0.1,0,0.2,0c0.2,0,0.3,0,0.5,0.1c0.2,0.1,0.4,0.2,0.5,0.3
			c0.1,0.2,0.2,0.4,0.1,0.6c-0.1,0.2-0.4,0.3-0.7,0.4c-0.6,0.1-1.3,0.3-2.1,0.6c-0.8,0.3-1.6,0.6-2.4,1c-0.8,0.4-1.5,0.7-2.1,1.1
			c-0.4,0.3-0.7,0.5-0.9,0.7c0.2,0.1,0.6,0.1,1,0.2c0.7,0.1,1.4,0.2,2.3,0.3c0.9,0.1,1.8,0.2,2.7,0.2c0.9,0.1,1.8,0.1,2.6,0.1
			c0.4,0,0.8,0,1.1,0c0.3,0,0.6,0,0.9-0.1c0.1,0,0.2,0,0.3,0c0.1,0,0.2,0,0.3,0c0.2,0,0.4,0.1,0.5,0.3c0.2,0.4,0,0.6-0.1,0.7
			c-0.1,0.1-0.3,0.2-0.5,0.2c-0.5,0.1-1.2,0.2-2.2,0.3c-1,0.1-2,0.1-3.2,0.1c-1.2,0-2.4-0.1-3.7-0.2c-1.2-0.1-2.3-0.3-3.3-0.6
			c-0.2,0.4-0.4,0.7-0.6,0.9c-0.2,0.3-0.3,0.5-0.5,0.7c-0.1,0.2-0.3,0.4-0.4,0.6c-0.1,0.2-0.2,0.4-0.3,0.6c0.1,0.3,0,0.5-0.1,0.6
			l-0.7,0.8C174.5,23.7,174.3,23.8,174.1,23.8L174.1,23.8z M171.2,14.6c-0.1,0-0.2,0-0.3,0.1c-0.3,0.1-0.6,0.3-0.9,0.5
			c-0.3,0.2-0.6,0.5-0.9,0.8c-0.3,0.3-0.5,0.6-0.7,0.8c-0.1,0.2-0.2,0.3-0.3,0.5c0,0,0,0.1-0.1,0.1c0.4-0.1,0.8-0.2,1.1-0.4
			c0.5-0.3,0.9-0.6,1.3-1c0.4-0.3,0.6-0.7,0.8-1C171.3,14.8,171.3,14.7,171.2,14.6C171.3,14.6,171.2,14.6,171.2,14.6z"/>
		<path class="st1" d="M186.7,3.1c0,0,0.1,0,0.1,0c0.1,0,0.3,0.1,0.4,0.2c0.1,0.1,0.2,0.3,0.2,0.4c0,0.2,0,0.3-0.1,0.5
			c-0.2,0.2-0.5,0.6-0.8,1.1c-0.3,0.5-0.7,1-1.1,1.6c-0.4,0.6-0.9,1.3-1.4,2c-0.5,0.7-1,1.4-1.5,2.2c-0.5,0.7-1,1.4-1.5,2.2
			c-0.5,0.7-0.9,1.4-1.4,2c0.4-0.2,0.9-0.4,1.4-0.6c0.5-0.2,1.1-0.4,1.6-0.6c0.6-0.2,1.1-0.4,1.6-0.5c0.5-0.1,1-0.2,1.4-0.3
			c0,0,0.1,0,0.1,0c0.1,0,0.2,0,0.4,0.1c0.2,0.1,0.3,0.2,0.4,0.3c0.1,0.1,0.1,0.2,0,0.3s-0.2,0.2-0.5,0.2c-0.6,0.1-1.3,0.4-2.1,0.6
			c-0.8,0.3-1.7,0.6-2.5,1c-0.8,0.4-1.5,0.7-2.1,1.1c-0.6,0.4-1,0.7-1.2,1c0.3,0.1,0.7,0.2,1.4,0.4c0.7,0.1,1.4,0.2,2.3,0.3
			c0.9,0.1,1.8,0.2,2.7,0.2c0.9,0.1,1.8,0.1,2.6,0.1c0.4,0,0.8,0,1.1,0c0.4,0,0.7,0,0.9-0.1c0.1,0,0.2,0,0.2,0c0.1,0,0.1,0,0.2,0
			c0.1,0,0.3,0.1,0.3,0.2c0.1,0.2,0.1,0.3,0,0.4c-0.1,0.1-0.2,0.1-0.4,0.2c-0.5,0.1-1.2,0.2-2.1,0.3c-0.9,0.1-2,0.1-3.2,0.1
			c-1.2,0-2.4-0.1-3.7-0.2c-1.3-0.1-2.4-0.3-3.5-0.6c-0.3,0.4-0.5,0.8-0.7,1.1c-0.2,0.3-0.4,0.5-0.5,0.7c-0.1,0.2-0.3,0.4-0.4,0.6
			c-0.1,0.2-0.2,0.4-0.4,0.7c0.1,0.2,0.1,0.3,0,0.4l-0.7,0.9c-0.1,0.1-0.2,0.1-0.3,0.1c0,0,0,0,0,0c-0.1,0-0.3,0-0.4-0.1
			c-0.1-0.1-0.2-0.2-0.3-0.3c-0.1-0.1-0.1-0.2,0-0.4c0.2-0.4,0.5-0.9,0.9-1.6c0.4-0.7,0.9-1.5,1.5-2.4c0.1-0.2,0.3-0.4,0.4-0.6
			c-0.6,0.5-1.2,0.9-1.8,1.3c-0.5,0.3-1,0.7-1.6,1c-0.6,0.3-1.1,0.6-1.6,0.8c-0.5,0.2-1,0.4-1.5,0.6c-0.5,0.1-0.9,0.2-1.4,0.2
			c-0.3,0-0.6-0.1-0.9-0.2c-0.3-0.1-0.6-0.3-0.8-0.5c-0.2-0.2-0.4-0.5-0.6-0.8c-0.2-0.3-0.2-0.6-0.2-0.9c0-0.7,0.1-1.3,0.4-2
			c0.3-0.7,0.7-1.3,1.1-1.9c0.5-0.6,1-1.1,1.5-1.5c0.6-0.4,1.1-0.7,1.6-0.8c0.1,0,0.3,0,0.5,0c0.1,0,0.2,0,0.2,0
			c0.3,0,0.5,0.1,0.7,0.2c0.2,0.1,0.4,0.3,0.6,0.5c0.2,0.2,0.3,0.5,0.3,0.8c0,0.4-0.1,0.9-0.4,1.4c-0.3,0.5-0.7,0.9-1.2,1.3
			c-0.5,0.4-1.1,0.7-1.8,0.9c-0.5,0.2-1,0.2-1.6,0.2c-0.2,0-0.4,0-0.6,0c-0.1,0.2-0.1,0.5-0.2,0.7c0,0.2-0.1,0.4-0.1,0.6
			c0,0.3,0.1,0.6,0.2,0.7c0.1,0.1,0.3,0.2,0.7,0.2c0.6,0,1.4-0.2,2.4-0.6c1-0.4,2.2-0.9,3.4-1.7c0.5-0.3,1-0.6,1.4-0.9
			c0.4-0.3,0.9-0.6,1.3-0.9c0.4-0.3,0.8-0.6,1.2-0.9c0.1,0,0.1-0.1,0.2-0.2c0.6-1,1.3-1.9,1.9-2.9c0.7-1,1.4-2.1,2.1-3.1
			c0.7-1,1.3-1.9,1.9-2.8c0.6-0.9,1.1-1.6,1.6-2.3c0.5-0.7,0.9-1.1,1.1-1.5C186.5,3.1,186.6,3.1,186.7,3.1 M167.6,17.7
			c0.6,0,1.1-0.1,1.7-0.4c0.5-0.3,1-0.6,1.3-1c0.4-0.4,0.6-0.7,0.8-1.1c0.2-0.4,0.2-0.6,0.1-0.7c-0.1,0-0.2-0.1-0.2-0.1
			c-0.1,0-0.3,0-0.4,0.1c-0.3,0.1-0.6,0.3-0.9,0.5c-0.3,0.2-0.6,0.5-0.9,0.8c-0.3,0.3-0.5,0.6-0.7,0.9c-0.1,0.2-0.2,0.3-0.3,0.5
			C167.7,17.4,167.6,17.6,167.6,17.7 M186.7,2.6C186.7,2.6,186.7,2.6,186.7,2.6C186.7,2.6,186.7,2.6,186.7,2.6
			c-0.2,0-0.4,0.1-0.6,0.3l0,0l0,0c-0.3,0.3-0.7,0.8-1.1,1.5c-0.5,0.7-1,1.4-1.6,2.3c-0.6,0.9-1.2,1.8-1.9,2.8c-0.7,1-1.4,2-2.1,3.1
			c-0.6,0.9-1.2,1.8-1.8,2.8l0,0.1l0,0l-0.1,0.1c-0.4,0.3-0.8,0.6-1.2,0.9c-0.4,0.3-0.8,0.6-1.3,0.9c-0.4,0.3-0.9,0.6-1.4,0.9
			c-1.2,0.7-2.3,1.2-3.3,1.6c-1,0.4-1.7,0.5-2.2,0.5c-0.2,0-0.3,0-0.3,0c0-0.1-0.1-0.2-0.1-0.4c0-0.1,0-0.3,0-0.5c0-0.1,0-0.2,0-0.2
			c0.1,0,0.1,0,0.2,0c0.6,0,1.2-0.1,1.7-0.3c0.7-0.2,1.4-0.6,2-1c0.6-0.4,1-0.9,1.4-1.4c0.4-0.6,0.5-1.1,0.4-1.7
			c-0.1-0.4-0.2-0.8-0.4-1c-0.2-0.3-0.5-0.5-0.8-0.6c-0.3-0.1-0.6-0.2-0.9-0.2c-0.1,0-0.2,0-0.3,0c-0.2,0-0.4,0-0.6,0.1
			c-0.6,0.1-1.2,0.4-1.8,0.9c-0.6,0.4-1.1,1-1.6,1.6c-0.5,0.6-0.9,1.3-1.2,2c-0.3,0.7-0.4,1.5-0.4,2.2c0,0.4,0.1,0.8,0.3,1.1
			c0.2,0.3,0.4,0.6,0.7,0.9c0.3,0.3,0.6,0.5,0.9,0.6c0.4,0.1,0.7,0.2,1.1,0.2c0.5,0,1-0.1,1.5-0.2c0.5-0.1,1.1-0.3,1.6-0.6
			c0.5-0.2,1.1-0.5,1.7-0.8c0.5-0.3,0.9-0.5,1.4-0.8c-0.2,0.3-0.3,0.6-0.5,0.8c-0.4,0.7-0.7,1.3-0.9,1.7c-0.1,0.3-0.1,0.6,0,0.8
			c0.1,0.2,0.2,0.3,0.4,0.5c0.2,0.1,0.4,0.2,0.6,0.2l0,0l0,0c0.3,0,0.5-0.1,0.7-0.4l0.7-0.8c0.1,0,0.3-0.3,0.2-0.7
			c0.1-0.2,0.2-0.4,0.3-0.5c0.1-0.2,0.2-0.4,0.4-0.6c0.1-0.2,0.3-0.4,0.5-0.7c0.1-0.2,0.3-0.5,0.5-0.8c1,0.2,2,0.4,3.2,0.5
			c1.3,0.1,2.5,0.2,3.7,0.2c1.2,0,2.3,0,3.2-0.1c1-0.1,1.7-0.2,2.2-0.3c0.3-0.1,0.5-0.2,0.6-0.3c0.2-0.2,0.4-0.5,0.2-1l0-0.1l0,0
			c-0.1-0.2-0.4-0.3-0.6-0.3c-0.1,0-0.2,0-0.3,0c-0.1,0-0.2,0-0.3,0c-0.2,0-0.5,0-0.8,0.1c-0.3,0-0.7,0-1.1,0c-0.8,0-1.7,0-2.6-0.1
			c-0.9-0.1-1.8-0.1-2.7-0.2c-0.9-0.1-1.6-0.2-2.3-0.3c-0.2,0-0.4-0.1-0.5-0.1c0.1-0.1,0.3-0.2,0.5-0.4c0.6-0.4,1.3-0.7,2.1-1.1
			c0.8-0.4,1.6-0.7,2.4-1c0.8-0.3,1.5-0.5,2.1-0.6c0.3,0,0.6-0.1,0.8-0.5c0.1-0.3,0.1-0.6-0.1-0.8c-0.1-0.2-0.3-0.3-0.6-0.4
			c-0.2-0.1-0.4-0.1-0.6-0.1c-0.1,0-0.2,0-0.2,0c-0.4,0.1-0.9,0.2-1.4,0.3c-0.5,0.1-1.1,0.3-1.7,0.5c-0.5,0.2-1,0.4-1.5,0.6l0.4-0.6
			l0.2-0.3c0.4-0.6,0.8-1.2,1.3-1.8c0.5-0.7,1-1.4,1.5-2.2c0.5-0.7,0.9-1.4,1.4-2c0.4-0.6,0.8-1.1,1.1-1.6c0.3-0.5,0.6-0.8,0.8-1
			c0.2-0.2,0.3-0.5,0.2-0.9c0-0.2-0.1-0.5-0.3-0.7c-0.2-0.2-0.4-0.3-0.6-0.4C186.9,2.6,186.8,2.6,186.7,2.6L186.7,2.6L186.7,2.6z
			 M168.5,17.1C168.5,17,168.5,17,168.5,17.1c0.2-0.3,0.5-0.6,0.7-0.9c0.3-0.3,0.6-0.5,0.9-0.8c0.3-0.2,0.6-0.4,0.8-0.5c0,0,0,0,0,0
			c-0.1,0.3-0.4,0.6-0.7,1c-0.3,0.3-0.8,0.6-1.2,0.9C168.8,16.9,168.7,17,168.5,17.1L168.5,17.1z"/>
	</g>
</g>
</svg>
