<?xml version="1.0" encoding="utf-8"?>
<!-- Generator: Adobe Illustrator 25.0.0, SVG Export Plug-In . SVG Version: 6.00 Build 0)  -->
<svg version="1.1" id="Layer_1" xmlns="http://www.w3.org/2000/svg" xmlns:xlink="http://www.w3.org/1999/xlink" x="0px" y="0px"
	 viewBox="0 0 306 30" style="enable-background:new 0 0 306 30;" xml:space="preserve">
<style type="text/css">
	.st0{fill:#0A62FB;}
	.st1{fill:#FFFFFF;}
</style>
<path d="M15.7,29.1l6.6-18.7l6.5,18.7h5l10-28.2H38l-6.7,19.7L24.7,0.9h-4.4l-6.8,19.5L7,0.9H0.7l10,28.2H15.7z M60.4,29.5
	c2.8,0,5.2-0.6,7.3-1.8c2.1-1.2,3.7-2.9,4.8-5c1.1-2.2,1.7-4.7,1.7-7.7c0-2.9-0.6-5.5-1.7-7.7s-2.7-3.8-4.8-5
	c-2.1-1.2-4.5-1.8-7.3-1.8s-5.3,0.6-7.3,1.8s-3.7,2.8-4.8,5S46.6,12,46.6,15c0,2.9,0.6,5.5,1.7,7.7c1.1,2.2,2.7,3.9,4.8,5
	C55.1,28.9,57.6,29.5,60.4,29.5z M60.4,24.6c-2.3,0-4.2-0.8-5.5-2.5s-2-4-2-7.2c0-3.1,0.7-5.5,2-7.1s3.2-2.5,5.5-2.5
	c2.4,0,4.2,0.8,5.6,2.5c1.3,1.6,2,4,2,7.1s-0.7,5.5-2,7.2C64.6,23.8,62.7,24.6,60.4,24.6z M85,29.1v-11h3.1c0.9,0,1.6,0.2,2.1,0.5
	s1,0.8,1.4,1.5l0,0l4.9,9h6.8l-4.6-8.4c-1-1.7-2.3-2.8-3.7-3.2c2.2-0.5,3.8-1.4,5-2.8s1.8-3.2,1.8-5.4c0-2.7-0.8-4.8-2.5-6.3
	s-4.2-2.2-7.5-2.2l0,0h-13v28.3H85z M90.9,13.4h-6V5.7h6c1.8,0,3.1,0.3,3.9,0.9s1.2,1.6,1.2,3c0,1.3-0.4,2.3-1.2,2.9
	S92.7,13.4,90.9,13.4L90.9,13.4z M125.8,29.1V24h-12.6V0.9H107v28.2H125.8z M140.4,29.1c3.1,0,5.7-0.6,8-1.7s3.9-2.7,5.1-4.9
	c1.2-2.1,1.7-4.6,1.7-7.6c0-2.9-0.6-5.5-1.8-7.6s-2.9-3.7-5.1-4.8s-4.9-1.7-7.9-1.7l0,0h-11v28.3H140.4z M140,24.1h-4.3V5.9h4.3
	c6,0,9,3,9,9C149,21,146,24.1,140,24.1L140,24.1z M185.4,29.1l12.7-28.2h-6.3L183,21.3l-8.8-20.4h-6.5l12.7,28.2H185.4z M206.5,29.1
	V0.9h-6.2v28.2H206.5z M222,29.5c3.7,0,6.5-0.8,8.6-2.3s3.1-3.6,3.1-6.3c0-2.2-0.8-3.9-2.4-5.2c-1.6-1.3-4.2-2.3-7.8-3.1
	c-1.5-0.3-2.7-0.7-3.6-1c-0.8-0.3-1.4-0.7-1.8-1.1s-0.5-0.9-0.5-1.6c0-1.1,0.5-2,1.4-2.6s2.2-0.9,3.8-0.9c2.9,0,5.6,0.9,8.2,2.8l0,0
	l2-4.4c-1.1-1-2.6-1.8-4.4-2.4s-3.8-0.9-5.8-0.9c-2.2,0-4.2,0.4-5.9,1.1c-1.7,0.8-3,1.8-4,3.1c-0.9,1.3-1.4,2.9-1.4,4.6
	c0,1.5,0.3,2.8,1,3.9s1.8,1.9,3.2,2.7c1.5,0.7,3.5,1.3,5.9,1.8c2.2,0.5,3.8,1,4.6,1.5c0.9,0.5,1.3,1.2,1.3,2.1c0,1-0.5,1.8-1.4,2.4
	s-2.3,0.9-4.1,0.9c-3.4,0-6.4-0.9-9.2-2.8l0,0l-2,4.4c1.3,1,2.9,1.8,4.9,2.4S219.8,29.5,222,29.5z M244.4,29.1V0.9h-6.2v28.2H244.4z
	 M262.9,29.5c2.8,0,5.2-0.6,7.3-1.8c2.1-1.2,3.7-2.9,4.8-5c1.1-2.2,1.7-4.7,1.7-7.7c0-2.9-0.6-5.5-1.7-7.7s-2.7-3.8-4.8-5
	c-2.1-1.2-4.5-1.8-7.3-1.8s-5.2,0.6-7.3,1.8s-3.7,2.8-4.8,5s-1.7,4.7-1.7,7.7c0,2.9,0.6,5.5,1.7,7.7c1.1,2.2,2.7,3.9,4.8,5
	C257.7,28.9,260.1,29.5,262.9,29.5z M262.9,24.6c-2.3,0-4.2-0.8-5.5-2.5s-2-4-2-7.2c0-3.1,0.7-5.5,2-7.1s3.2-2.5,5.5-2.5
	c2.4,0,4.2,0.8,5.6,2.5c1.3,1.6,2,4,2,7.1s-0.7,5.5-2,7.2C267.1,23.8,265.3,24.6,262.9,24.6z M287.2,29.1v-18l14,18h4.6V0.9H300
	v17.9L286,0.9h-4.6v28.2H287.2z"/>
<g>
	<g>
		<path class="st0" d="M147.9,29.8c-0.2,0-0.6-0.1-0.9-0.5c0,0-0.1-0.1-0.1-0.1c0,0-0.1-0.2-0.7-0.5c-0.5-0.2-1.2-0.5-1.9-0.6
			c-0.8-0.2-1.7-0.4-2.6-0.6c-1-0.2-2-0.3-3-0.4c-1-0.1-2-0.2-3-0.3c-1-0.1-1.8-0.1-2.6-0.1c-0.7,0-1.2,0-1.7,0.1l-2.5,0.8
			c-0.2,0-0.3,0.1-0.4,0.1c-0.2,0-0.4,0-0.7-0.1c-0.3-0.1-0.6-0.3-0.8-0.5c-0.2-0.2-0.4-0.5-0.5-0.7c-0.2-0.5-0.1-0.8,0-1.1
			c0.3-0.5,0.9-1,2-1.3c0.9-0.3,2-0.5,3.3-0.7c0.3,0,0.8-0.2,1.6-0.6c0.7-0.3,1.6-0.8,2.5-1.4c0.9-0.6,2-1.2,3-2
			c1.1-0.7,2.1-1.5,3.1-2.4c1-0.9,2-1.8,3-2.7c0.9-0.9,1.8-1.8,2.5-2.8c0.7-0.9,1.3-1.8,1.7-2.7c0.4-0.8,0.6-1.6,0.6-2.3
			c0-0.5-0.1-1-0.4-1.5c-0.2-0.3-0.4-0.5-0.8-0.6c-0.4-0.1-0.9-0.2-1.4-0.2c-0.5,0-1,0-1.5,0.1c-0.5,0.1-1,0.2-1.4,0.3
			c-0.9,0.3-1.6,0.6-2.3,1c-0.7,0.4-1.3,0.8-1.8,1.3c-0.5,0.4-0.8,0.8-1.1,1.1C139,8.3,139,8.4,139,8.4c0,0.2-0.1,0.3-0.2,0.5
			c-0.3,0.4-0.6,0.6-1,0.6c-0.1,0-0.2,0-0.3-0.1c-0.2-0.1-0.5-0.3-0.8-0.7c-0.1-0.2-0.2-0.5-0.3-0.8c-0.1-0.3-0.1-0.6,0-0.9
			c0.1-0.6,0.5-1.2,1.2-2c0.6-0.7,1.4-1.4,2.3-2.1c0.9-0.6,2-1.2,3.2-1.6c1.2-0.5,2.5-0.7,3.9-0.7c0.2,0,0.4,0,0.6,0
			c0.2,0,0.4,0,0.6,0c0.9,0.2,1.6,0.5,2.2,0.8c0.6,0.4,1.1,0.8,1.5,1.4c0.4,0.5,0.7,1.1,0.8,1.7c0.2,0.6,0.3,1.2,0.3,1.8
			c0,1.1-0.3,2.3-0.8,3.5c-0.5,1.2-1.2,2.4-2.1,3.5c-0.8,1.1-1.8,2.3-3,3.4c-1.1,1.1-2.3,2.2-3.5,3.2c-1.2,1-2.5,1.9-3.8,2.8
			c-0.6,0.4-1.1,0.7-1.7,1.1c0.8,0.1,1.7,0.3,2.6,0.4c0.9,0.2,1.8,0.4,2.6,0.6c0.9,0.2,1.7,0.4,2.4,0.7c0.7,0.2,1.4,0.5,2,0.8
			c0.6,0.3,1.1,0.7,1.4,1c0.3,0.5,0.4,0.9,0.4,1.3c-0.1,0.5-0.3,0.8-0.5,0.9c-0.2,0.2-0.5,0.3-0.8,0.3
			C148.1,29.8,148,29.8,147.9,29.8z"/>
		<path class="st1" d="M147,1.3c0.2,0,0.4,0,0.5,0c0.2,0,0.4,0,0.5,0c0.7,0.1,1.3,0.4,1.9,0.7c0.5,0.3,1,0.7,1.3,1.2
			c0.3,0.5,0.6,0.9,0.7,1.5c0.2,0.5,0.2,1.1,0.2,1.6c0,1-0.2,2.1-0.7,3.2c-0.5,1.1-1.2,2.3-2,3.4c-0.8,1.1-1.8,2.2-2.9,3.3
			c-1.1,1.1-2.3,2.1-3.5,3.1c-1.2,1-2.5,1.9-3.7,2.7c-1.3,0.8-2.5,1.6-3.6,2.2c0.7,0.1,1.5,0.1,2.3,0.3c0.8,0.1,1.7,0.3,2.5,0.4
			c0.9,0.2,1.7,0.4,2.6,0.6c0.8,0.2,1.6,0.4,2.3,0.7c0.7,0.2,1.3,0.5,1.9,0.8c0.5,0.3,0.9,0.6,1.2,0.8c0.2,0.2,0.2,0.5,0.2,0.7
			c0,0.2-0.1,0.3-0.2,0.4c-0.1,0.1-0.2,0.1-0.3,0.1c0,0-0.1,0-0.1,0c-0.2,0-0.3-0.1-0.4-0.2c-0.1-0.3-0.5-0.5-1-0.8
			c-0.6-0.3-1.2-0.5-2-0.7c-0.8-0.2-1.7-0.4-2.7-0.6c-1-0.2-2-0.3-3-0.4c-1-0.1-2-0.2-3-0.3c-1-0.1-1.9-0.1-2.7-0.1
			c-0.7,0-1.4,0-1.8,0.1l-2.6,0.8c-0.1,0-0.1,0-0.2,0c-0.1,0-0.3,0-0.4-0.1c-0.2-0.1-0.4-0.2-0.5-0.4c-0.2-0.2-0.3-0.3-0.3-0.5
			c-0.1-0.2-0.1-0.3,0-0.4c0.2-0.3,0.7-0.7,1.5-0.9c0.9-0.3,1.9-0.5,3.2-0.7c0.5-0.1,1.1-0.3,1.8-0.7c0.8-0.4,1.6-0.8,2.6-1.4
			c1-0.6,2-1.2,3-2s2.1-1.6,3.2-2.4c1-0.9,2.1-1.8,3-2.7c1-0.9,1.8-1.9,2.5-2.8c0.7-0.9,1.3-1.9,1.8-2.8c0.4-0.9,0.6-1.8,0.6-2.6
			c0-0.7-0.2-1.3-0.5-1.9c-0.3-0.5-0.7-0.8-1.2-1c-0.5-0.2-1.1-0.3-1.7-0.3c-0.5,0-1.1,0.1-1.6,0.2c-0.5,0.1-1,0.2-1.5,0.4
			c-0.9,0.3-1.7,0.7-2.5,1.1c-0.7,0.4-1.4,0.9-1.9,1.3c-0.5,0.4-0.9,0.9-1.2,1.3c-0.3,0.4-0.4,0.7-0.4,0.9c-0.2,0.2-0.3,0.3-0.4,0.3
			c0,0-0.1,0-0.1,0c-0.2-0.1-0.3-0.2-0.4-0.3c-0.1-0.2-0.2-0.4-0.2-0.6c0-0.2,0-0.4,0-0.6c0.1-0.5,0.5-1.1,1-1.7
			c0.6-0.7,1.3-1.3,2.2-1.9c0.9-0.6,1.9-1.1,3.1-1.6C144.5,1.5,145.7,1.3,147,1.3 M147-0.2c-1.5,0-2.9,0.2-4.2,0.7
			c-1.3,0.5-2.4,1-3.4,1.7c-1,0.7-1.8,1.4-2.5,2.2c-0.7,0.8-1.1,1.6-1.3,2.3c-0.1,0.4-0.1,0.8,0,1.2c0.1,0.4,0.2,0.8,0.4,1.1
			c0.3,0.5,0.7,0.8,1.2,1c0.2,0.1,0.4,0.1,0.6,0.1c0.4,0,1-0.1,1.6-0.8c0.2-0.2,0.3-0.5,0.3-0.8c0,0,0.1-0.1,0.2-0.3
			c0.2-0.3,0.5-0.6,1-1c0.4-0.4,1-0.8,1.7-1.2c0.6-0.4,1.3-0.7,2.1-0.9c0.4-0.1,0.8-0.2,1.3-0.3c0.5-0.1,0.9-0.1,1.3-0.1
			c0.4,0,0.8,0.1,1.2,0.2c0.2,0.1,0.3,0.1,0.3,0.3c0.2,0.4,0.3,0.7,0.3,1.1c0,0.6-0.2,1.3-0.5,2c-0.4,0.8-0.9,1.7-1.6,2.5
			c-0.7,0.9-1.5,1.8-2.4,2.7c-0.9,0.9-1.9,1.8-2.9,2.6c-1,0.8-2,1.6-3.1,2.4c-1,0.7-2,1.4-2.9,1.9c-0.9,0.5-1.7,1-2.4,1.3
			c-0.9,0.4-1.3,0.5-1.5,0.5c-1.3,0.2-2.5,0.5-3.4,0.7c-0.8,0.2-2,0.7-2.5,1.7c-0.2,0.5-0.3,1.1,0,1.7c0.2,0.4,0.4,0.7,0.7,1
			c0.3,0.3,0.6,0.5,1,0.7c0.3,0.1,0.6,0.2,1,0.2c0.2,0,0.3,0,0.5-0.1c0,0,0.1,0,0.1,0l2.4-0.7c0.4,0,0.9-0.1,1.5-0.1
			c0.8,0,1.6,0,2.6,0.1c0.9,0.1,1.9,0.1,2.9,0.3c1,0.1,2,0.3,2.9,0.4c0.9,0.2,1.8,0.3,2.6,0.5c0.7,0.2,1.3,0.4,1.8,0.6
			c0.2,0.1,0.4,0.2,0.4,0.2c0,0.1,0.1,0.1,0.1,0.2c0.4,0.4,0.8,0.7,1.3,0.8c0.1,0,0.2,0,0.3,0c0.4,0,0.9-0.1,1.2-0.4
			c0.3-0.2,0.7-0.7,0.8-1.4c0.1-0.6-0.1-1.2-0.4-1.7c0-0.1-0.1-0.1-0.1-0.1c-0.4-0.4-0.9-0.8-1.6-1.2c-0.6-0.3-1.3-0.6-2.1-0.9
			c-0.8-0.2-1.6-0.5-2.4-0.7c-0.9-0.2-1.7-0.4-2.6-0.6c-0.2,0-0.4-0.1-0.6-0.1c1.3-0.9,2.6-1.8,3.8-2.8c1.2-1,2.5-2.1,3.6-3.2
			c1.1-1.1,2.2-2.3,3-3.5c0.9-1.2,1.6-2.4,2.2-3.7c0.6-1.3,0.9-2.6,0.9-3.8c0-0.7-0.1-1.4-0.3-2c-0.2-0.7-0.5-1.3-1-1.9
			c-0.4-0.6-1-1.1-1.7-1.6c-0.7-0.4-1.5-0.8-2.4-0.9c0,0-0.1,0-0.1,0c-0.2,0-0.4,0-0.6-0.1C147.5-0.2,147.2-0.2,147-0.2L147-0.2z"/>
	</g>
	<g>
		<path class="st0" d="M156.7,30.4c-0.6,0-1-0.3-1.2-0.6c-0.2-0.3-0.3-0.7-0.3-1.1c0-0.5,0.1-1,0.3-1.6c0.2-0.5,0.4-1.1,0.7-1.6
			c0.2-0.5,0.5-1,0.7-1.4c0.2-0.4,0.4-0.7,0.4-0.8c0.3-0.5,0.6-1,0.8-1.4c0.3-0.4,0.5-0.8,0.8-1.3s0.6-0.9,0.9-1.4
			c0.3-0.5,0.7-1.1,1.2-1.8c0.5-0.8,1.2-1.6,1.9-2.6c0.7-1,1.5-2,2.3-3c0.8-1,1.6-2.1,2.4-3.1c0.3-0.4,0.7-0.8,1-1.2
			c-0.9,0.1-1.8,0.2-2.6,0.3c-1.4,0.1-2.7,0.3-3.9,0.4c0,0-0.1,0-0.1,0c-0.4,0-0.7-0.2-0.9-0.6c-0.1-0.2-0.2-0.5-0.2-0.8
			c0-0.3,0.1-0.6,0.3-0.8c0.2-0.3,0.6-0.5,0.9-0.5c1.4-0.2,2.8-0.4,4.3-0.5c1.4-0.1,2.9-0.3,4.6-0.4c0.3-0.4,0.7-0.7,1-1.1
			c0.4-0.5,0.8-1,1.2-1.4c0.4-0.5,0.8-0.9,1.1-1.2c0.4-0.4,0.7-0.7,1.1-1c0,0,0.1,0,0.1-0.1c0.2-0.1,0.5-0.2,0.7-0.2
			c0.1,0,0.3,0,0.4,0.1c0.3,0.1,0.5,0.2,0.8,0.4c0.2,0.2,0.4,0.4,0.5,0.7c0.2,0.4,0.1,0.9-0.3,1.2c-0.2,0.2-0.4,0.4-0.7,0.7
			c-0.3,0.3-0.6,0.6-0.9,1c-0.2,0.2-0.4,0.5-0.6,0.7c0.5,0,1-0.1,1.5-0.1c1.1-0.1,2.1-0.1,3.1-0.1c0.6,0,1.3-0.1,2.1-0.1
			c0.5,0,1,0,1.5,0l0.8,0c0.8,0,1.5,0,2.2,0.1c0.7,0.1,1.4,0.1,1.9,0.3c0.4,0.1,0.7,0.3,0.9,0.6c0.3,0.4,0.4,0.8,0.2,1.2
			c-0.1,0.2-0.2,0.5-0.6,0.6c-0.2,0.1-0.4,0.1-0.6,0.2c-0.2,0-0.3,0-0.5,0l-0.2,0c-0.2,0-0.4,0-0.6-0.1c-0.3-0.1-0.5-0.2-0.5-0.4
			c-0.8-0.1-1.7-0.1-2.5-0.1l-0.5,0c-1.2,0-2.4,0.1-3.6,0.1c-1.2,0.1-2.5,0.1-3.7,0.2L173,7.1c-0.6,0.7-1.2,1.5-2,2.4
			c-0.8,1-1.7,2.1-2.5,3.2c-0.8,1.1-1.7,2.2-2.4,3.3c-0.8,1.1-1.4,2-2,2.9c-0.9,1.3-1.8,2.5-2.6,3.8c-0.8,1.2-1.5,2.3-2.1,3.3
			c-0.3,0.4-0.5,0.8-0.7,1.2c-0.2,0.4-0.4,0.8-0.6,1.2l-0.2,0.5c0.2,0.3,0.1,0.7-0.1,1.1C157.6,30.2,157.3,30.4,156.7,30.4
			C156.7,30.4,156.7,30.4,156.7,30.4C156.7,30.4,156.7,30.4,156.7,30.4z"/>
		<path class="st1" d="M176.2,0.3c0.1,0,0.1,0,0.2,0c0.2,0.1,0.3,0.1,0.5,0.3c0.1,0.1,0.2,0.2,0.3,0.4c0.1,0.1,0,0.2,0,0.3
			c-0.2,0.2-0.5,0.5-0.8,0.8c-0.3,0.3-0.6,0.6-0.9,1c-0.3,0.4-0.6,0.7-0.9,1.1c-0.3,0.4-0.6,0.7-0.8,1c1.1-0.1,2.2-0.2,3.3-0.2
			c1.1-0.1,2.1-0.1,3.1-0.1c0.6,0,1.3-0.1,2.1-0.1c0.5,0,1,0,1.5,0c0.3,0,0.5,0,0.8,0c0.8,0,1.5,0,2.2,0.1c0.7,0,1.3,0.1,1.8,0.3
			c0.2,0.1,0.4,0.2,0.5,0.3c0.1,0.2,0.2,0.3,0.1,0.4c0,0.1-0.1,0.2-0.2,0.2c-0.1,0.1-0.3,0.1-0.4,0.1c-0.1,0-0.2,0-0.3,0
			c0,0-0.1,0-0.1,0c-0.2,0-0.3,0-0.4-0.1c-0.1,0-0.1-0.1-0.1-0.2c0-0.1,0-0.1,0-0.2c-1-0.1-2.1-0.1-3.1-0.1c-0.2,0-0.3,0-0.5,0
			c-1.2,0-2.4,0.1-3.7,0.1c-1.2,0.1-2.5,0.1-3.7,0.2c-1.2,0.1-2.5,0.2-3.7,0.3C172,7.1,171.2,8,170.4,9c-0.8,1-1.7,2.1-2.5,3.2
			c-0.9,1.1-1.7,2.2-2.5,3.3c-0.8,1.1-1.4,2-2,2.9c-0.9,1.3-1.8,2.6-2.6,3.8c-0.8,1.2-1.5,2.3-2.1,3.3c-0.3,0.4-0.5,0.9-0.7,1.3
			c-0.2,0.4-0.4,0.8-0.6,1.2l-0.3,0.9c0,0,0,0.1,0,0.1c0,0,0,0.1,0.1,0.1c0.1,0.1,0.1,0.3,0,0.4c-0.1,0.1-0.3,0.2-0.5,0.2
			c-0.3,0-0.5-0.1-0.6-0.3c-0.1-0.2-0.2-0.4-0.2-0.6c0-0.4,0.1-0.8,0.3-1.4c0.2-0.5,0.4-1,0.6-1.5c0.2-0.5,0.5-1,0.7-1.4
			c0.2-0.4,0.4-0.7,0.4-0.9c0.3-0.5,0.6-1,0.8-1.4c0.3-0.4,0.5-0.8,0.8-1.3c0.3-0.4,0.6-0.9,0.9-1.4c0.3-0.5,0.7-1.1,1.2-1.7
			c0.5-0.7,1.2-1.6,1.9-2.6c0.7-1,1.5-2,2.3-3c0.8-1,1.6-2,2.3-3c0.8-1,1.5-1.9,2.1-2.6c-1.5,0.1-3,0.3-4.4,0.4
			c-1.4,0.1-2.7,0.3-3.9,0.4c0,0,0,0-0.1,0c-0.1,0-0.2-0.1-0.3-0.2c-0.1-0.1-0.1-0.3-0.1-0.4c0-0.1,0.1-0.3,0.2-0.4
			c0.1-0.1,0.2-0.2,0.4-0.2c1.4-0.2,2.9-0.4,4.3-0.5c1.4-0.1,3.1-0.3,4.9-0.5c0.4-0.4,0.8-0.9,1.2-1.4c0.4-0.5,0.8-0.9,1.2-1.4
			c0.4-0.4,0.8-0.8,1.1-1.2c0.4-0.4,0.7-0.7,1-0.9C176,0.4,176.1,0.3,176.2,0.3 M176.2-1.2c-0.4,0-0.7,0.1-1,0.3
			c-0.1,0-0.1,0.1-0.2,0.1c-0.4,0.3-0.7,0.6-1.2,1c-0.4,0.4-0.8,0.8-1.2,1.3c-0.4,0.4-0.8,0.9-1.2,1.4c-0.3,0.3-0.5,0.6-0.8,0.9
			c-1.6,0.1-3,0.3-4.3,0.4c-1.5,0.1-2.9,0.3-4.3,0.5c-0.6,0.1-1.1,0.3-1.4,0.8c-0.3,0.4-0.4,0.8-0.5,1.2c0,0.4,0.1,0.8,0.2,1.2
			c0.3,0.6,0.9,1,1.6,1c0.1,0,0.1,0,0.2,0c1.2-0.1,2.5-0.3,3.9-0.4c0.3,0,0.6-0.1,0.8-0.1c-0.7,0.9-1.5,1.9-2.2,2.9
			c-0.8,1-1.5,2.1-2.3,3c-0.7,1-1.3,1.8-1.9,2.6c-0.5,0.7-0.9,1.3-1.2,1.8c-0.3,0.5-0.7,1-0.9,1.4c-0.3,0.4-0.6,0.9-0.8,1.3
			c-0.3,0.4-0.5,0.9-0.8,1.4c0,0,0,0,0,0.1c-0.1,0.2-0.2,0.4-0.4,0.8c-0.2,0.4-0.5,0.9-0.7,1.4c-0.3,0.5-0.5,1.1-0.7,1.7
			c-0.2,0.7-0.4,1.3-0.4,1.9c0,0.6,0.2,1.1,0.5,1.5c0.3,0.4,0.8,0.8,1.7,0.9c0,0,0.1,0,0.1,0c0,0,0.1,0,0.1,0
			c0.9-0.1,1.4-0.5,1.6-0.8c0.3-0.5,0.4-1,0.3-1.5l0.1-0.2c0.2-0.3,0.3-0.7,0.5-1.1c0.2-0.4,0.4-0.8,0.7-1.2c0.6-1,1.3-2.1,2.1-3.3
			c0.8-1.2,1.7-2.5,2.6-3.7c0,0,0,0,0-0.1c0.5-0.8,1.2-1.8,2-2.8c0.8-1,1.6-2.1,2.4-3.3c0.8-1.1,1.7-2.2,2.5-3.2
			c0.6-0.8,1.2-1.5,1.7-2.2l3.1-0.2c1.2-0.1,2.4-0.2,3.7-0.2c1.2-0.1,2.4-0.1,3.6-0.1c0.2,0,0.3,0,0.5,0c0.7,0,1.4,0,2.1,0.1
			c0.2,0.2,0.4,0.3,0.6,0.4c0,0,0,0,0.1,0c0.2,0.1,0.5,0.1,0.7,0.1c0.1,0,0.1,0,0.2,0c0.2,0,0.4,0,0.6,0c0.3,0,0.6-0.1,0.8-0.2
			c0.5-0.2,0.8-0.6,1-1c0.3-0.7,0.2-1.4-0.3-2c-0.3-0.4-0.7-0.6-1.2-0.8c0,0-0.1,0-0.1,0c-0.6-0.2-1.3-0.3-2-0.3
			c-0.7-0.1-1.5-0.1-2.2-0.1c-0.3,0-0.5,0-0.8,0c-0.5,0-1,0-1.5,0c-0.8,0-1.5,0-2.1,0.1c-0.9,0-1.9,0.1-2.9,0.1
			c0.1-0.1,0.2-0.2,0.3-0.3c0.2-0.3,0.5-0.5,0.7-0.7c0.6-0.5,0.7-1.3,0.5-2c-0.1-0.3-0.4-0.7-0.7-0.9c-0.3-0.3-0.7-0.5-1-0.6
			C176.6-1.1,176.4-1.2,176.2-1.2L176.2-1.2z"/>
	</g>
	<g>
		<path class="st0" d="M178.6,30.4c-0.3,0-0.6-0.1-0.9-0.3c-0.3-0.2-0.5-0.4-0.6-0.7c-0.2-0.4-0.2-0.8,0-1.2
			c0.3-0.6,0.7-1.3,1.2-2.3c0.2-0.3,0.3-0.6,0.5-0.9c-0.5,0.3-1.1,0.7-1.6,1c-0.8,0.4-1.5,0.8-2.3,1.1c-0.7,0.3-1.5,0.6-2.2,0.8
			c-0.7,0.2-1.4,0.3-2,0.3c0,0,0,0,0,0c-0.6,0-1.1-0.1-1.6-0.3c-0.5-0.2-0.9-0.5-1.3-0.8c-0.4-0.4-0.7-0.8-0.9-1.2
			c-0.3-0.5-0.4-1-0.4-1.6c0-1,0.1-2,0.6-3.1c0.4-1,1-1.9,1.6-2.8c0.7-0.8,1.4-1.6,2.2-2.2c0.8-0.6,1.7-1,2.5-1.2
			c0.2-0.1,0.5-0.1,0.8-0.1c0.1,0,0.3,0,0.4,0c0.4,0,0.9,0.2,1.3,0.3c0.4,0.2,0.8,0.5,1.1,0.8c0.3,0.4,0.5,0.9,0.6,1.4
			c0.1,0.8-0.1,1.6-0.6,2.4c-0.4,0.7-1.1,1.4-1.9,2c-0.8,0.6-1.7,1-2.7,1.3c-0.8,0.2-1.6,0.4-2.4,0.4c-0.1,0-0.1,0-0.2,0
			c0,0.1,0,0.2,0,0.2c0,0.3-0.1,0.5-0.1,0.7c0,0.2,0,0.4,0.1,0.4c0.1,0,0.2,0,0.4,0c0.7,0,1.7-0.2,3-0.7c1.4-0.5,2.9-1.2,4.5-2.2
			c0.7-0.4,1.3-0.8,1.9-1.2c0.6-0.4,1.2-0.8,1.7-1.2c0.6-0.4,1.1-0.8,1.7-1.3l0.2-0.1l2.6-3.8c0.9-1.4,1.9-2.8,2.8-4.2
			c0.9-1.4,1.8-2.6,2.6-3.8c0.8-1.2,1.5-2.2,2.2-3.1c0.7-0.9,1.2-1.6,1.6-2c0.3-0.3,0.6-0.4,0.9-0.4c0.1,0,0.2,0,0.3,0
			c0.3,0.1,0.6,0.3,0.9,0.6c0.2,0.3,0.4,0.6,0.4,0.9c0.1,0.5,0,0.9-0.4,1.2c-0.2,0.3-0.6,0.8-1,1.4c-0.5,0.6-1,1.4-1.6,2.2
			c-0.6,0.8-1.2,1.7-1.9,2.7c-0.7,1-1.3,1.9-2,2.9l-2.4,3.5c0.6-0.2,1.2-0.5,1.9-0.7c0.8-0.3,1.5-0.5,2.2-0.7c0.7-0.2,1.4-0.3,2-0.4
			c0.1,0,0.2,0,0.3,0c0.3,0,0.5,0.1,0.8,0.2c0.3,0.2,0.6,0.4,0.8,0.6c0.3,0.4,0.3,0.8,0.1,1.2c-0.3,0.5-0.8,0.6-1.2,0.7
			c-0.7,0.2-1.7,0.5-2.8,0.8c-1.1,0.4-2.2,0.8-3.3,1.3c-1,0.5-2,1-2.8,1.5c-0.2,0.1-0.4,0.3-0.6,0.4c0.2,0,0.3,0.1,0.6,0.1
			c0.9,0.1,1.9,0.3,3.1,0.4c1.2,0.1,2.4,0.2,3.6,0.3c1.2,0.1,2.4,0.1,3.5,0.1c0.5,0,1.1,0,1.5,0c0.5,0,0.9,0,1.2-0.1
			c0.1,0,0.2,0,0.4,0c0.2,0,0.3,0,0.5,0c0.4,0.1,0.7,0.2,0.9,0.5c0,0,0.1,0.1,0.1,0.1c0.3,0.6,0.1,1.1-0.2,1.4
			c-0.2,0.2-0.5,0.3-0.9,0.4c-0.7,0.2-1.6,0.3-3,0.4c-1.3,0.1-2.8,0.2-4.4,0.2c-1.6,0-3.4-0.1-5.1-0.3c-1.5-0.1-3-0.4-4.3-0.7
			c-0.3,0.4-0.5,0.7-0.7,1c-0.3,0.4-0.5,0.7-0.7,1c-0.2,0.3-0.3,0.5-0.5,0.8c-0.1,0.2-0.2,0.4-0.3,0.7c0.1,0.5-0.2,0.9-0.3,1
			l-0.9,1.1C179.5,30.2,179.1,30.4,178.6,30.4C178.7,30.4,178.6,30.4,178.6,30.4z M174.2,18.1c-0.3,0.1-0.6,0.3-0.9,0.6
			c-0.4,0.3-0.8,0.7-1.2,1c-0.4,0.3-0.6,0.7-0.9,1c0.1-0.1,0.3-0.1,0.4-0.2c0.6-0.4,1.2-0.8,1.7-1.2C173.7,18.9,174,18.5,174.2,18.1
			z"/>
		<path class="st1" d="M195.8,1.8c0,0,0.1,0,0.1,0c0.2,0.1,0.4,0.2,0.5,0.3c0.1,0.2,0.2,0.4,0.3,0.6c0,0.2,0,0.4-0.2,0.6
			c-0.3,0.3-0.6,0.8-1.1,1.4c-0.5,0.6-1,1.4-1.6,2.2c-0.6,0.8-1.2,1.7-1.9,2.7c-0.7,1-1.3,1.9-2,2.9c-0.7,1-1.4,2-2,2.9
			c-0.7,1-1.3,1.9-1.9,2.7c0.6-0.3,1.2-0.6,2-0.9c0.7-0.3,1.5-0.6,2.2-0.8c0.7-0.3,1.5-0.5,2.2-0.7c0.7-0.2,1.3-0.3,1.9-0.4
			c0.1,0,0.1,0,0.2,0c0.2,0,0.3,0,0.5,0.1c0.2,0.1,0.4,0.2,0.5,0.4c0.1,0.1,0.1,0.3,0.1,0.4c-0.1,0.1-0.3,0.2-0.7,0.3
			c-0.8,0.2-1.8,0.5-2.9,0.9c-1.1,0.4-2.3,0.8-3.3,1.3c-1.1,0.5-2.1,1-2.9,1.5c-0.9,0.5-1.4,1-1.6,1.4c0.4,0.2,1,0.3,1.9,0.5
			c0.9,0.2,1.9,0.3,3.1,0.4c1.2,0.1,2.4,0.2,3.7,0.3c1.3,0.1,2.5,0.1,3.6,0.1c0.6,0,1.1,0,1.6,0c0.5,0,0.9-0.1,1.2-0.1
			c0.1,0,0.2,0,0.3,0c0.1,0,0.2,0,0.3,0c0.2,0,0.3,0.1,0.4,0.2c0.1,0.2,0.1,0.4,0,0.5c-0.1,0.1-0.3,0.2-0.6,0.3
			c-0.6,0.2-1.6,0.3-2.9,0.4c-1.3,0.1-2.7,0.2-4.3,0.2c-1.6,0-3.3-0.1-5-0.2c-1.7-0.2-3.3-0.4-4.7-0.8c-0.4,0.6-0.7,1.1-0.9,1.4
			c-0.3,0.4-0.5,0.7-0.7,1c-0.2,0.3-0.4,0.5-0.5,0.8s-0.3,0.6-0.5,1c0.1,0.2,0.1,0.4,0,0.5l-1,1.2c-0.1,0.1-0.2,0.2-0.4,0.2
			c0,0,0,0,0,0c-0.2,0-0.4-0.1-0.5-0.2c-0.2-0.1-0.3-0.2-0.4-0.4c-0.1-0.2-0.1-0.3,0-0.5c0.2-0.5,0.6-1.3,1.2-2.2
			c0.6-0.9,1.2-2,2-3.2c0.2-0.3,0.4-0.6,0.6-0.9c-0.8,0.6-1.6,1.2-2.5,1.8c-0.7,0.5-1.4,0.9-2.2,1.3c-0.8,0.4-1.5,0.8-2.2,1.1
			c-0.7,0.3-1.4,0.6-2.1,0.8c-0.7,0.2-1.3,0.3-1.9,0.3c-0.4,0-0.8-0.1-1.2-0.2c-0.4-0.2-0.8-0.4-1.1-0.7c-0.3-0.3-0.6-0.6-0.8-1
			c-0.2-0.4-0.3-0.8-0.3-1.2c0-0.9,0.1-1.8,0.5-2.7c0.4-0.9,0.9-1.8,1.5-2.6c0.6-0.8,1.3-1.5,2.1-2c0.8-0.6,1.5-0.9,2.2-1.1
			c0.2,0,0.4-0.1,0.6-0.1c0.1,0,0.2,0,0.3,0c0.3,0,0.7,0.1,1,0.3c0.3,0.2,0.6,0.4,0.8,0.6c0.2,0.3,0.4,0.6,0.4,1
			c0.1,0.6-0.1,1.2-0.5,1.9c-0.4,0.7-1,1.2-1.7,1.8c-0.7,0.5-1.5,0.9-2.5,1.2c-0.7,0.2-1.4,0.3-2.2,0.3c-0.3,0-0.5,0-0.8,0
			c-0.1,0.3-0.2,0.6-0.2,0.9c-0.1,0.3-0.1,0.6-0.1,0.8c0,0.4,0.1,0.8,0.3,1c0.2,0.2,0.5,0.2,0.9,0.2c0.8,0,1.9-0.3,3.3-0.8
			c1.4-0.5,2.9-1.3,4.6-2.3c0.7-0.4,1.3-0.8,1.9-1.2c0.6-0.4,1.2-0.8,1.7-1.2c0.6-0.4,1.1-0.8,1.7-1.3c0.1-0.1,0.2-0.1,0.3-0.2
			c0.9-1.3,1.7-2.6,2.6-3.9c0.9-1.4,1.9-2.8,2.8-4.2c0.9-1.4,1.8-2.6,2.6-3.8c0.8-1.2,1.5-2.2,2.2-3.1c0.6-0.9,1.2-1.6,1.5-2
			C195.5,1.9,195.6,1.8,195.8,1.8 M169.7,21.8c0.8,0,1.6-0.2,2.3-0.6c0.7-0.4,1.3-0.9,1.8-1.4c0.5-0.5,0.9-1,1.1-1.5
			c0.2-0.5,0.3-0.8,0.1-1c-0.1-0.1-0.2-0.1-0.3-0.1c-0.2,0-0.4,0-0.6,0.1c-0.4,0.2-0.8,0.4-1.3,0.7c-0.4,0.3-0.9,0.7-1.3,1.1
			c-0.4,0.4-0.7,0.8-1,1.2c-0.2,0.2-0.3,0.5-0.5,0.7C170,21.3,169.8,21.5,169.7,21.8 M195.8,0.3C195.8,0.3,195.8,0.3,195.8,0.3
			C195.8,0.3,195.8,0.3,195.8,0.3c-0.5,0-1,0.2-1.4,0.6c0,0-0.1,0.1-0.1,0.1c-0.4,0.5-0.9,1.1-1.6,2.1C192,4,191.3,5,190.5,6.2
			c-0.8,1.2-1.7,2.4-2.6,3.8c-1,1.4-1.9,2.8-2.9,4.2c-0.8,1.3-1.7,2.5-2.5,3.7l-0.1,0.1c-0.6,0.4-1.1,0.9-1.7,1.3
			c-0.5,0.4-1.1,0.8-1.7,1.2c-0.6,0.4-1.2,0.8-1.9,1.2c-0.4,0.2-0.8,0.5-1.2,0.7c0.6-0.5,1.2-1.2,1.6-1.8c0.6-0.9,0.8-1.9,0.7-2.8
			c0,0,0,0,0-0.1c-0.1-0.7-0.4-1.3-0.8-1.8c-0.4-0.4-0.8-0.8-1.4-1c-0.5-0.2-1-0.4-1.5-0.4c-0.2,0-0.3,0-0.5,0c-0.3,0-0.6,0-0.9,0.1
			c-0.9,0.2-1.8,0.6-2.8,1.3c-0.9,0.6-1.7,1.4-2.4,2.3c-0.7,0.9-1.3,1.9-1.7,2.9c-0.5,1.1-0.7,2.3-0.6,3.4c0,0.7,0.2,1.3,0.5,1.9
			c0.3,0.5,0.6,1,1.1,1.4c0.5,0.4,1,0.8,1.5,1c0.6,0.2,1.2,0.4,1.8,0.4c0,0,0,0,0.1,0c0.7,0,1.4-0.1,2.2-0.4
			c0.7-0.2,1.5-0.5,2.3-0.8c0.5-0.2,1-0.5,1.5-0.7c-0.2,0.3-0.3,0.6-0.4,0.8c-0.3,0.6-0.3,1.3,0.1,1.9c0.2,0.4,0.5,0.7,0.8,0.9
			c0.4,0.3,0.8,0.4,1.3,0.4c0,0,0.1,0,0.1,0c0.6,0,1.2-0.3,1.6-0.8l0.9-1.1c0.3-0.3,0.5-0.8,0.5-1.3c0.1-0.2,0.2-0.3,0.2-0.4
			c0.1-0.2,0.3-0.5,0.5-0.7c0.2-0.3,0.4-0.6,0.6-0.9c0.1-0.2,0.3-0.4,0.4-0.6c1.2,0.3,2.5,0.5,3.9,0.6c1.7,0.2,3.5,0.3,5.2,0.3
			c1.6,0,3.1-0.1,4.4-0.2c1.4-0.1,2.4-0.3,3.1-0.5c0.5-0.1,0.9-0.3,1.2-0.6c0.7-0.6,0.8-1.5,0.4-2.3c-0.1-0.1-0.1-0.2-0.2-0.3
			c-0.3-0.4-0.8-0.6-1.3-0.8c-0.2,0-0.4-0.1-0.6-0.1c-0.2,0-0.4,0-0.5,0c-0.3,0-0.7,0.1-1.1,0.1c-0.5,0-1,0-1.5,0
			c-1.1,0-2.2,0-3.5-0.1c-1.2-0.1-2.5-0.2-3.6-0.3c-0.5-0.1-1-0.1-1.5-0.2c0.5-0.3,1-0.5,1.6-0.8c1.1-0.5,2.1-0.9,3.2-1.3
			c1.1-0.4,2-0.6,2.7-0.8c0.8-0.1,1.4-0.5,1.7-1.1c0.3-0.7,0.3-1.4-0.2-2c-0.3-0.3-0.6-0.6-1.1-0.8c-0.4-0.2-0.7-0.2-1.1-0.2
			c-0.2,0-0.3,0-0.5,0c-0.6,0.1-1.2,0.2-2,0.4c-0.6,0.2-1.3,0.4-2,0.6c0.4-0.5,0.7-1.1,1.1-1.6c0.7-1,1.3-2,2-2.9
			c0.7-1,1.3-1.8,1.9-2.6c0.6-0.8,1.1-1.5,1.6-2.2c0.4-0.6,0.8-1,1-1.4c0.4-0.5,0.6-1.2,0.5-1.8c-0.1-0.5-0.3-0.9-0.6-1.3
			c-0.3-0.4-0.8-0.7-1.2-0.8C196.1,0.3,196,0.3,195.8,0.3L195.8,0.3L195.8,0.3z"/>
	</g>
</g>
</svg>
