<?xml version="1.0" encoding="utf-8"?>
<!-- Generator: Adobe Illustrator 25.0.0, SVG Export Plug-In . SVG Version: 6.00 Build 0)  -->
<svg version="1.1" id="Layer_1" xmlns="http://www.w3.org/2000/svg" xmlns:xlink="http://www.w3.org/1999/xlink" x="0px" y="0px"
	 viewBox="0 0 500 500" style="enable-background:new 0 0 500 500;" xml:space="preserve">
<style type="text/css">
	.st0{fill:none;}
	.st1{fill:#0A62FB;}
</style>
<g>
	<polygon points="212,218.48 250.29,101.54 288,218.48 317,218.48 375.02,42.13 341.37,42.13 302.5,165.33 264.21,42.13 
		238.69,42.13 199.24,164.08 161.53,42.13 124.98,42.13 183,218.48 	"/>
	<g>
		<path class="st0" d="M95.64,282.99c6.07,1.35,11.47,2.7,17.55,4.05c2.55,0.64,5.1,1.43,7.65,2.22l-8.99-21.52
			c-6.54,5.07-13.39,9.83-20.26,14.58C92.95,282.32,94.3,282.99,95.64,282.99z"/>
		<path class="st0" d="M348.72,142.62c-1.35,1.35-3.37,2.7-4.72,4.72c-0.67,0.67-1.35,1.35-2.02,2.02c1.55,0,3.09-0.04,4.63-0.09
			l2.26-6.79C348.81,142.53,348.77,142.58,348.72,142.62z"/>
		<path d="M121.29,216.18c6.07-6.07,11.47-12.15,16.2-18.22c4.72-5.4,8.1-11.47,10.8-16.87c2.02-4.72,3.37-9.45,3.37-13.5
			c0-2.7-0.67-4.72-2.02-7.42c0-1.35-0.67-1.35-2.02-2.02c-2.7-0.67-5.4-1.35-8.1-1.35c-2.7,0-5.4,0-8.77,0.67
			c-3.37,0.67-6.07,1.35-8.77,2.02c-5.4,1.35-10.12,3.37-14.17,6.07c-4.72,2.7-8.77,5.4-11.47,8.1c-3.37,2.7-5.4,4.72-6.75,6.75
			c-0.67,1.35-1.35,2.02-1.35,2.02c0,2.02-0.67,4.05-2.02,5.4c-2.01,2.35-4.02,3.69-5.87,4.45l18.33,43.88
			c1.02-0.81,2.04-1.63,3.06-2.44C108.47,228.33,115.22,222.25,121.29,216.18z"/>
		<path d="M348.86,142.49l-2.26,6.79c5.18-0.18,10.26-0.58,14.94-0.58c4.05-0.67,8.77-0.67,14.17-0.67c3.37,0,6.75,0,10.12,0
			c2.02,0,3.37,0,5.4,0c4.72,0,10.12,0,14.85,0.67c4.72,0,9.45,0.67,13.5,2.02h0.67c3.37,1.35,6.07,2.7,8.1,5.4
			c2.02,2.43,3.06,5.1,3.14,7.87L500,0H396.38l-43.82,131.38C353.13,135.43,352.15,139.64,348.86,142.49z"/>
		<path d="M323.07,222.93c3.37,0,6.75,1.35,10.12,2.7c4.05,1.35,6.75,4.05,9.45,6.75c2.7,3.37,4.72,7.42,5.4,12.15
			c0,0.67,0,0.67,0,0.67c0.67,6.07-0.67,12.82-4.72,18.9c-2.7,4.05-6.75,8.77-10.8,12.15c2.7-1.35,5.4-3.37,8.1-4.72
			c4.72-2.7,8.77-5.4,12.82-8.1c4.05-2.7,8.1-5.4,11.47-8.1c4.05-2.7,7.42-6.07,11.47-8.77l0.67-0.67
			c5.4-8.1,11.47-16.2,16.87-24.97c6.75-9.45,12.82-18.9,19.57-28.34c3.9-6.07,7.8-11.57,11.52-16.88c-0.44,0.25-0.9,0.49-1.39,0.68
			c-1.35,0.67-3.37,1.35-5.4,1.35c-1.35,0-2.7,0-4.05,0c-0.67,0-0.67,0-1.35,0c-1.35,0-3.37,0-4.72-0.67c-0.67,0-0.67,0-0.67,0
			c-1.35-0.67-2.7-1.35-4.05-2.7c-4.72-0.67-9.45-0.67-14.17-0.67c-1.35,0-2.02,0-3.37,0c-8.1,0-16.2,0-24.29,0.67
			c-8.32,0-16.03,0.61-23.72,1.25l-15.79,47.34C322.34,222.93,322.68,222.93,323.07,222.93z"/>
		<path d="M86.2,139.92c6.75-4.72,14.17-8.1,22.95-11.47s18.22-4.72,28.34-4.72c1.35,0,3.37,0,4.05,0c1.35,0.67,2.7,0.67,4.05,0.67
			h0.67c0.76,0.08,1.51,0.2,2.25,0.35L106.91,0H0l66.27,158.64c0.91-1.29,1.92-2.58,3.05-3.87
			C74.05,149.37,79.45,144.64,86.2,139.92z"/>
		<path d="M350.07,336.3h-0.67c-3.37,0-6.07-0.67-8.77-2.7c-2.02-1.35-4.05-3.37-5.4-6.07c-2.7-4.05-2.7-8.77-0.67-12.82
			c0.67-1.35,1.35-3.37,2.7-5.4c-3.37,1.35-6.75,3.37-10.12,4.72c-5.4,2.02-10.8,4.05-15.52,5.4c-5.4,2.02-10.12,2.7-14.85,2.7
			c-0.67,0-0.67,0-0.67,0c-2.26,0-4.52-0.43-6.78-1.03l-37.65,112.88l-35.51-106.46c-0.3,0.68-0.64,1.36-1.04,2.04
			c-1.35,2.02-4.72,4.72-10.8,5.4h-0.67h-0.67c-6.07-0.67-9.45-3.37-11.47-6.07c-2.02-2.7-3.37-6.07-3.37-10.12s1.35-8.1,2.7-12.82
			c1.35-4.05,2.7-8.1,4.72-11.47c1.35-3.37,3.37-6.75,4.72-9.45c0.4-0.8,0.73-1.46,1.03-2.06l-27.79-83.32
			c-3.33,6.38-7.14,12.48-11.71,18.57c-5.4,8.1-12.82,16.2-20.25,23.62s-16.2,14.85-24.29,21.6c-1.77,1.47-3.57,2.9-5.39,4.32
			l8.99,21.52c2.85,0.89,5.7,1.79,8.54,2.5c5.4,2.02,10.12,4.05,14.17,6.07c4.72,2.7,8.1,5.4,10.8,8.1c0,0,0.67,0,0.67,0.67
			c2.02,3.37,3.37,7.42,2.7,11.47c-0.67,4.72-3.37,8.1-5.4,9.45c-2.02,2.02-5.4,2.7-8.1,2.7c-0.67,0-1.35,0-2.02,0
			c-1.92-0.38-3.63-1.22-5.24-2.36L208.88,500h82.24l71.58-171.34l-1.83,2.24C358.16,334.28,354.11,336.3,350.07,336.3z"/>
	</g>
</g>
<g>
	<g>
		<path class="st1" d="M165.83,146.67c-2.02-3.37-5.4-6.07-8.77-8.1c-4.05-2.02-8.1-4.05-12.82-4.72c-0.67,0-2.02,0-3.37,0
			c-0.67,0-2.02,0-3.37,0c-8.77,0-16.87,1.35-24.29,4.72c-8.1,3.37-14.85,6.75-20.92,10.8c-6.07,4.05-10.8,8.1-14.85,12.82
			c-3.37,4.05-6.07,8.1-6.75,11.47c0,1.35,0,2.7,0,4.05c0,1.35,0.67,2.7,1.35,4.05c0.67,0.67,1.35,1.35,2.7,2.02h0.67
			c0.67,0,1.35-0.67,2.7-2.02c0-1.35,0.67-3.37,2.7-6.07s4.72-6.07,8.1-8.77c3.37-2.7,8.1-6.07,12.82-8.77
			c5.4-2.7,10.8-5.4,16.87-7.42c3.37-1.35,6.75-2.02,10.12-2.7c3.37-0.67,7.42-1.35,10.8-1.35c4.05,0,8.1,0.67,11.47,2.02
			c3.37,1.35,6.07,3.37,8.1,6.75c2.02,4.05,3.37,8.1,3.37,12.82c0,5.4-1.35,11.47-4.05,17.55c-3.37,6.07-7.42,12.82-12.15,18.9
			c-4.72,6.07-10.12,12.82-16.87,18.9c-6.07,6.07-13.5,12.15-20.25,18.22c-7.42,5.4-14.85,10.8-21.6,16.2
			c-6.75,5.4-13.5,9.45-20.25,13.5c-6.75,4.05-12.15,6.75-17.55,9.45c-4.72,2.7-8.77,4.05-12.15,4.72
			c-8.77,1.35-15.52,2.7-21.6,4.72c-5.4,1.35-8.77,4.05-10.12,6.07c-0.67,0.67-0.67,1.35,0,2.7c0,1.35,0.67,2.02,2.02,3.37
			c0.67,1.35,2.02,2.02,3.37,2.7c0.67,0.67,2.02,0.67,2.7,0.67c0.67,0,0.67,0,1.35,0l17.55-5.4c2.7-0.67,7.42-0.67,12.15-0.67
			c5.4,0,11.47,0,18.22,0.67s13.5,1.35,20.25,2.02s13.5,1.35,20.25,2.7c6.75,1.35,12.82,2.7,18.22,4.05c5.4,1.35,9.45,2.7,13.5,4.72
			c3.37,2.02,6.07,3.37,6.75,5.4c0.67,0.67,1.35,1.35,2.7,1.35h0.67c0.67,0,1.35,0,2.02-0.67c0.67-0.67,1.35-1.35,1.35-2.7
			c0-1.35,0-3.37-1.35-4.72c-2.02-1.35-4.72-3.37-8.1-5.4c-4.05-2.02-8.1-4.05-12.82-5.4c-4.72-2.02-10.12-3.37-15.52-4.72
			c-6.07-1.35-11.47-2.7-17.55-4.05c-5.4-0.67-11.47-2.02-16.87-2.7c-5.4-1.35-10.8-1.35-15.52-2.02
			c7.42-4.05,15.52-9.45,24.29-14.85c8.1-5.4,16.87-11.47,24.97-18.22c8.1-6.75,16.2-13.5,23.62-20.92
			c7.42-7.42,14.17-14.85,19.57-22.27s10.12-15.52,13.5-22.95c3.37-7.42,4.72-14.85,4.72-21.6c0-3.37,0-7.42-1.35-10.8
			C169.88,152.74,167.85,150.04,165.83,146.67z"/>
		<path class="st1" d="M418.23,160.17c-3.37-1.35-7.42-2.02-12.15-2.02c-4.72-0.67-9.45-0.67-14.85-0.67c-2.02,0-3.37,0-5.4,0
			c-3.37,0-6.75,0-10.12,0c-5.4,0-10.12,0.67-14.17,0.67c-6.75,0-13.5,0-20.92,0.67c-7.42,0-14.85,0.67-22.27,1.35
			c1.35-2.02,3.37-4.05,5.4-6.75c2.02-2.7,4.05-4.72,6.07-7.42c2.02-2.7,4.05-4.72,6.07-6.75c2.02-2.02,4.05-4.05,5.4-5.4
			c0-0.67,0.67-1.35,0-2.02c-0.67-1.35-1.35-2.02-2.02-2.7c-1.35-1.35-2.02-1.35-3.37-2.02c-0.67,0-0.67,0-1.35,0
			c-0.67,0-1.35,0.67-3.37,0c-2.02,1.35-4.05,3.37-6.75,6.07c-2.02,2.7-4.72,5.4-7.42,8.1c-2.7,3.37-5.4,6.07-8.1,9.45
			c-2.7,3.37-5.4,6.75-8.1,9.45c-12.15,1.35-23.62,2.7-33.07,3.37c-9.45,0.67-19.57,2.02-29.02,3.37c-1.35,0-2.02,0.67-2.7,1.35
			c-0.67,0.67-1.35,2.02-1.35,2.7s0,2.02,0.67,2.7c0.67,0.67,1.35,1.35,2.02,1.35c0.67,0,0.67,0,0.67,0
			c8.1-0.67,16.87-2.02,26.32-2.7s19.57-2.02,29.69-2.7c-4.05,4.72-8.77,10.8-14.17,17.55c-4.72,6.75-10.12,13.5-15.52,20.25
			c-5.4,6.75-10.8,13.5-15.52,20.25c-4.72,6.75-9.45,12.82-12.82,17.55c-3.37,4.05-6.07,8.1-8.1,11.47
			c-2.02,3.37-4.05,6.75-6.07,9.45c-2.02,3.37-3.37,6.07-5.4,8.77c-1.35,2.7-3.37,6.07-5.4,9.45c0,1.35-1.35,3.37-2.7,6.07
			c-1.35,2.7-3.37,6.07-4.72,9.45c-1.35,3.37-2.7,6.75-4.05,10.12c-1.35,4.05-2.02,6.75-2.02,9.45c0,1.35,0.67,2.7,1.35,4.05
			c0.67,1.35,2.02,2.02,4.05,2.02c1.35,0,2.7-0.67,3.37-1.35c0.67-0.67,0.67-2.02,0-2.7c-0.67,0-0.67-0.67-0.67-0.67v-0.67
			l2.02-6.07c1.35-2.7,2.7-5.4,4.05-8.1c1.35-2.7,2.7-6.07,4.72-8.77c4.05-6.75,8.77-14.17,14.17-22.27
			c5.4-8.1,11.47-16.87,17.55-25.64c4.05-6.07,8.1-12.15,13.5-19.57c5.4-7.42,10.8-14.85,16.87-22.27
			c5.4-7.42,11.47-14.85,16.87-21.6c5.4-6.75,10.8-12.82,17.55-18.9c8.1-0.67,16.87-1.35,24.97-2.02c8.1-0.67,16.87-0.67,24.97-1.35
			c8.77,0,16.87-0.67,24.97-0.67c1.35,0,2.02,0,3.37,0c6.75,0,14.17,0,20.92,0.67c0,0.67,0,0.67,0,1.35s0,1.35,0.67,1.35
			c0.67,0.67,1.35,0.67,2.7,0.67h0.67c0.67,0,1.35,0,2.02,0c0.67,0,2.02,0,2.7-0.67c0.67,0,1.35-0.67,1.35-1.35
			c0.67-0.67,0-1.35-0.67-2.7C420.93,161.52,419.58,160.84,418.23,160.17z"/>
		<path class="st1" d="M494.48,278.94c-0.67,0-1.35,0-2.02,0c-0.67,0-1.35,0-2.02,0c-2.02,0-4.72,0.67-8.1,0.67s-6.75,0-10.8,0
			c-7.42,0-15.52,0-24.29-0.67c-8.77-0.67-16.87-1.35-24.97-2.02c-8.1-0.67-14.85-1.35-20.92-2.7c-6.07-1.35-10.12-2.02-12.82-3.37
			c1.35-2.7,4.72-6.07,10.8-9.45c5.4-3.37,12.15-6.75,19.57-10.12c6.75-3.37,14.85-6.07,22.27-8.77c7.42-2.7,14.17-4.72,19.57-6.07
			c2.7-0.67,4.05-1.35,4.72-2.02c0-0.67,0-2.02-0.67-2.7c-0.67-1.35-2.02-2.02-3.37-2.7c-1.35-0.67-2.02-0.67-3.37-0.67
			c-0.67,0-0.67,0-1.35,0c-4.05,0.67-8.1,1.35-12.82,2.7c-4.72,1.35-10.12,2.7-14.85,4.72c-4.72,1.35-10.12,3.37-14.85,5.4
			c-5.4,2.02-9.45,4.05-13.5,6.07c4.05-5.4,8.1-11.47,12.82-18.22c4.05-6.07,8.77-12.82,13.5-19.57c4.72-6.75,8.77-12.82,13.5-19.57
			c4.72-6.75,8.77-12.82,12.82-18.22c4.05-5.4,7.42-10.8,10.8-14.85c3.37-4.05,5.4-7.42,7.42-9.45c1.35-1.35,1.35-2.7,1.35-4.05
			c-0.67-1.35-1.35-2.7-2.02-4.05c-0.67-0.67-2.02-1.35-3.37-2.02h-0.67c-1.35,0-2.02,0.67-4.05,0c-2.02,2.7-6.07,7.42-10.12,13.5
			c-4.72,6.07-9.45,12.82-14.85,20.92s-11.47,16.2-17.55,25.64c-6.07,9.45-12.82,18.9-18.9,28.34
			c-6.07,8.77-11.47,17.55-17.55,26.32c-0.67,0.67-1.35,0.67-2.02,1.35c-4.05,3.37-7.42,6.07-11.47,8.77
			c-3.37,2.7-7.42,5.4-11.47,8.1c-4.05,2.7-8.1,5.4-12.82,8.1c-11.47,6.75-21.6,12.15-31.04,15.52c-9.45,3.37-16.87,5.4-22.27,5.4
			c-2.7,0-4.72,0-6.07-1.35c-1.35-1.35-2.02-4.05-2.02-6.75c0-1.35,0-3.37,0.67-5.4c0-2.02,0.67-4.05,1.35-6.07c2.02,0,3.37,0,5.4,0
			c5.4,0,10.12-0.67,14.85-2.02c6.75-2.02,12.15-4.72,16.87-8.1c4.72-4.05,8.77-7.42,11.47-12.15c2.7-4.72,4.05-8.77,3.37-12.82
			c0-2.7-1.35-4.72-2.7-6.75c-1.35-1.35-3.37-2.7-5.4-4.05c-2.02-1.35-4.72-2.02-6.75-2.02c-0.67,0-1.35,0-2.02,0
			c-1.35,0-2.7,0.67-4.05,0.67c-4.72,1.35-9.45,3.37-14.85,7.42c-5.4,3.37-10.12,8.1-14.17,13.5c-4.05,5.4-7.42,11.47-10.12,17.55
			c-2.7,6.07-3.37,12.15-3.37,18.22c0,2.7,0.67,5.4,2.02,8.1s3.37,4.72,5.4,6.75c2.02,2.02,4.72,3.37,7.42,4.72
			c2.7,0.67,5.4,1.35,8.1,1.35c4.05,0,8.1-0.67,12.82-2.02c4.72-1.35,9.45-3.37,14.17-5.4c4.72-2.02,9.45-4.72,14.85-7.42
			s10.12-5.4,14.85-8.77c6.07-4.05,11.47-8.1,16.87-12.15c-1.35,2.02-2.7,4.05-4.05,6.07c-5.4,8.1-9.45,15.52-13.5,21.6
			c-4.05,6.07-6.75,11.47-8.1,14.85c-0.67,1.35-0.67,2.02,0,3.37c0.67,1.35,1.35,2.02,2.7,2.7c0.67,0.67,2.02,1.35,3.37,1.35
			c1.35,0,2.02-0.67,2.7-1.35l6.75-8.1c0.67-0.67,0.67-2.02,0-3.37c1.35-2.7,2.7-4.72,3.37-6.75c0.67-2.02,2.02-3.37,3.37-5.4
			c1.35-2.02,2.7-4.05,4.72-6.75c1.35-2.02,3.37-5.4,6.07-9.45c9.45,2.7,20.25,4.05,31.72,5.4c11.47,0.67,22.95,1.35,33.74,1.35
			s20.25-0.67,29.02-1.35c8.77-0.67,15.52-1.35,19.57-2.7c2.02-0.67,3.37-1.35,4.05-2.02c0.67-0.67,0.67-2.02,0-3.37
			C496.51,279.62,495.83,278.94,494.48,278.94z M292.7,266.79c1.35-1.35,2.02-3.37,3.37-4.72c2.02-2.7,4.05-5.4,6.75-8.1
			c2.7-2.7,6.07-5.4,8.77-7.42c3.37-2.02,6.07-3.37,8.77-4.72c1.35-0.67,2.7-0.67,4.05-0.67c0.67,0,1.35,0,2.02,0.67
			c1.35,1.35,0.67,3.37-0.67,6.75c-1.35,3.37-4.05,6.75-7.42,10.12c-3.37,3.37-7.42,6.75-12.15,9.45
			c-4.72,2.7-10.12,4.05-15.52,4.05C291.35,270.17,292.7,268.82,292.7,266.79z"/>
	</g>
</g>
</svg>
